%TF.GenerationSoftware,KiCad,Pcbnew,10.0.1*%
%TF.CreationDate,2026-08-28T15:59:30+02:00*%
%TF.ProjectId,Zeptoduck_panelized,5a657074-6f64-4756-936b-5f70616e656c,rev?*%
%TF.SameCoordinates,Original*%
%TF.FileFunction,Paste,Bot*%
%TF.FilePolarity,Positive*%
%FSLAX46Y46*%
G04 Gerber Fmt 4.6, Leading zero omitted, Abs format (unit mm)*
G04 Created by KiCad (PCBNEW 10.0.1) date 2026-08-28 15:59:30*
%MOMM*%
%LPD*%
G01*
G04 APERTURE LIST*
%ADD10R,0.279400X1.041400*%
G04 APERTURE END LIST*
D10*
%TO.C,J2*%
X84714937Y-101624736D03*
X85214936Y-101624736D03*
X85714938Y-101624736D03*
X86214937Y-101624736D03*
X86714936Y-101624736D03*
X87214937Y-101624736D03*
X87714937Y-101624736D03*
X88214938Y-101624736D03*
X88714937Y-101624736D03*
X89214936Y-101624736D03*
X89714938Y-101624736D03*
X90214937Y-101624736D03*
X90214937Y-103574734D03*
X89714938Y-103574734D03*
X89214936Y-103574734D03*
X88714937Y-103574734D03*
X88214938Y-103574734D03*
X87714937Y-103574734D03*
X87214937Y-103574734D03*
X86714936Y-103574734D03*
X86214937Y-103574734D03*
X85714938Y-103574734D03*
X85214936Y-103574734D03*
X84714937Y-103574734D03*
%TD*%
%TO.C,J2*%
X84714937Y-91624736D03*
X85214936Y-91624736D03*
X85714938Y-91624736D03*
X86214937Y-91624736D03*
X86714936Y-91624736D03*
X87214937Y-91624736D03*
X87714937Y-91624736D03*
X88214938Y-91624736D03*
X88714937Y-91624736D03*
X89214936Y-91624736D03*
X89714938Y-91624736D03*
X90214937Y-91624736D03*
X90214937Y-93574734D03*
X89714938Y-93574734D03*
X89214936Y-93574734D03*
X88714937Y-93574734D03*
X88214938Y-93574734D03*
X87714937Y-93574734D03*
X87214937Y-93574734D03*
X86714936Y-93574734D03*
X86214937Y-93574734D03*
X85714938Y-93574734D03*
X85214936Y-93574734D03*
X84714937Y-93574734D03*
%TD*%
%TO.C,J2*%
X84714937Y-81624736D03*
X85214936Y-81624736D03*
X85714938Y-81624736D03*
X86214937Y-81624736D03*
X86714936Y-81624736D03*
X87214937Y-81624736D03*
X87714937Y-81624736D03*
X88214938Y-81624736D03*
X88714937Y-81624736D03*
X89214936Y-81624736D03*
X89714938Y-81624736D03*
X90214937Y-81624736D03*
X90214937Y-83574734D03*
X89714938Y-83574734D03*
X89214936Y-83574734D03*
X88714937Y-83574734D03*
X88214938Y-83574734D03*
X87714937Y-83574734D03*
X87214937Y-83574734D03*
X86714936Y-83574734D03*
X86214937Y-83574734D03*
X85714938Y-83574734D03*
X85214936Y-83574734D03*
X84714937Y-83574734D03*
%TD*%
%TO.C,J2*%
X84714937Y-86624736D03*
X85214936Y-86624736D03*
X85714938Y-86624736D03*
X86214937Y-86624736D03*
X86714936Y-86624736D03*
X87214937Y-86624736D03*
X87714937Y-86624736D03*
X88214938Y-86624736D03*
X88714937Y-86624736D03*
X89214936Y-86624736D03*
X89714938Y-86624736D03*
X90214937Y-86624736D03*
X90214937Y-88574734D03*
X89714938Y-88574734D03*
X89214936Y-88574734D03*
X88714937Y-88574734D03*
X88214938Y-88574734D03*
X87714937Y-88574734D03*
X87214937Y-88574734D03*
X86714936Y-88574734D03*
X86214937Y-88574734D03*
X85714938Y-88574734D03*
X85214936Y-88574734D03*
X84714937Y-88574734D03*
%TD*%
%TO.C,J2*%
X84714937Y-96624736D03*
X85214936Y-96624736D03*
X85714938Y-96624736D03*
X86214937Y-96624736D03*
X86714936Y-96624736D03*
X87214937Y-96624736D03*
X87714937Y-96624736D03*
X88214938Y-96624736D03*
X88714937Y-96624736D03*
X89214936Y-96624736D03*
X89714938Y-96624736D03*
X90214937Y-96624736D03*
X90214937Y-98574734D03*
X89714938Y-98574734D03*
X89214936Y-98574734D03*
X88714937Y-98574734D03*
X88214938Y-98574734D03*
X87714937Y-98574734D03*
X87214937Y-98574734D03*
X86714936Y-98574734D03*
X86214937Y-98574734D03*
X85714938Y-98574734D03*
X85214936Y-98574734D03*
X84714937Y-98574734D03*
%TD*%
M02*
