%TF.GenerationSoftware,KiCad,Pcbnew,10.0.1*%
%TF.CreationDate,2026-08-28T15:59:30+02:00*%
%TF.ProjectId,Zeptoduck_panelized,5a657074-6f64-4756-936b-5f70616e656c,rev?*%
%TF.SameCoordinates,Original*%
%TF.FileFunction,Legend,Bot*%
%TF.FilePolarity,Positive*%
%FSLAX46Y46*%
G04 Gerber Fmt 4.6, Leading zero omitted, Abs format (unit mm)*
G04 Created by KiCad (PCBNEW 10.0.1) date 2026-08-28 15:59:30*
%MOMM*%
%LPD*%
G01*
G04 APERTURE LIST*
%ADD10C,0.150000*%
%ADD11C,0.152400*%
%ADD12C,0.100000*%
G04 APERTURE END LIST*
D10*
X87798270Y-102054554D02*
X87798270Y-102768839D01*
X87798270Y-102768839D02*
X87845889Y-102911696D01*
X87845889Y-102911696D02*
X87941127Y-103006935D01*
X87941127Y-103006935D02*
X88083984Y-103054554D01*
X88083984Y-103054554D02*
X88179222Y-103054554D01*
X87369698Y-102149792D02*
X87322079Y-102102173D01*
X87322079Y-102102173D02*
X87226841Y-102054554D01*
X87226841Y-102054554D02*
X86988746Y-102054554D01*
X86988746Y-102054554D02*
X86893508Y-102102173D01*
X86893508Y-102102173D02*
X86845889Y-102149792D01*
X86845889Y-102149792D02*
X86798270Y-102245030D01*
X86798270Y-102245030D02*
X86798270Y-102340268D01*
X86798270Y-102340268D02*
X86845889Y-102483125D01*
X86845889Y-102483125D02*
X87417317Y-103054554D01*
X87417317Y-103054554D02*
X86798270Y-103054554D01*
X87798270Y-92054554D02*
X87798270Y-92768839D01*
X87798270Y-92768839D02*
X87845889Y-92911696D01*
X87845889Y-92911696D02*
X87941127Y-93006935D01*
X87941127Y-93006935D02*
X88083984Y-93054554D01*
X88083984Y-93054554D02*
X88179222Y-93054554D01*
X87369698Y-92149792D02*
X87322079Y-92102173D01*
X87322079Y-92102173D02*
X87226841Y-92054554D01*
X87226841Y-92054554D02*
X86988746Y-92054554D01*
X86988746Y-92054554D02*
X86893508Y-92102173D01*
X86893508Y-92102173D02*
X86845889Y-92149792D01*
X86845889Y-92149792D02*
X86798270Y-92245030D01*
X86798270Y-92245030D02*
X86798270Y-92340268D01*
X86798270Y-92340268D02*
X86845889Y-92483125D01*
X86845889Y-92483125D02*
X87417317Y-93054554D01*
X87417317Y-93054554D02*
X86798270Y-93054554D01*
X87798270Y-82054554D02*
X87798270Y-82768839D01*
X87798270Y-82768839D02*
X87845889Y-82911696D01*
X87845889Y-82911696D02*
X87941127Y-83006935D01*
X87941127Y-83006935D02*
X88083984Y-83054554D01*
X88083984Y-83054554D02*
X88179222Y-83054554D01*
X87369698Y-82149792D02*
X87322079Y-82102173D01*
X87322079Y-82102173D02*
X87226841Y-82054554D01*
X87226841Y-82054554D02*
X86988746Y-82054554D01*
X86988746Y-82054554D02*
X86893508Y-82102173D01*
X86893508Y-82102173D02*
X86845889Y-82149792D01*
X86845889Y-82149792D02*
X86798270Y-82245030D01*
X86798270Y-82245030D02*
X86798270Y-82340268D01*
X86798270Y-82340268D02*
X86845889Y-82483125D01*
X86845889Y-82483125D02*
X87417317Y-83054554D01*
X87417317Y-83054554D02*
X86798270Y-83054554D01*
X87798270Y-87054554D02*
X87798270Y-87768839D01*
X87798270Y-87768839D02*
X87845889Y-87911696D01*
X87845889Y-87911696D02*
X87941127Y-88006935D01*
X87941127Y-88006935D02*
X88083984Y-88054554D01*
X88083984Y-88054554D02*
X88179222Y-88054554D01*
X87369698Y-87149792D02*
X87322079Y-87102173D01*
X87322079Y-87102173D02*
X87226841Y-87054554D01*
X87226841Y-87054554D02*
X86988746Y-87054554D01*
X86988746Y-87054554D02*
X86893508Y-87102173D01*
X86893508Y-87102173D02*
X86845889Y-87149792D01*
X86845889Y-87149792D02*
X86798270Y-87245030D01*
X86798270Y-87245030D02*
X86798270Y-87340268D01*
X86798270Y-87340268D02*
X86845889Y-87483125D01*
X86845889Y-87483125D02*
X87417317Y-88054554D01*
X87417317Y-88054554D02*
X86798270Y-88054554D01*
X87798270Y-97054554D02*
X87798270Y-97768839D01*
X87798270Y-97768839D02*
X87845889Y-97911696D01*
X87845889Y-97911696D02*
X87941127Y-98006935D01*
X87941127Y-98006935D02*
X88083984Y-98054554D01*
X88083984Y-98054554D02*
X88179222Y-98054554D01*
X87369698Y-97149792D02*
X87322079Y-97102173D01*
X87322079Y-97102173D02*
X87226841Y-97054554D01*
X87226841Y-97054554D02*
X86988746Y-97054554D01*
X86988746Y-97054554D02*
X86893508Y-97102173D01*
X86893508Y-97102173D02*
X86845889Y-97149792D01*
X86845889Y-97149792D02*
X86798270Y-97245030D01*
X86798270Y-97245030D02*
X86798270Y-97340268D01*
X86798270Y-97340268D02*
X86845889Y-97483125D01*
X86845889Y-97483125D02*
X87417317Y-98054554D01*
X87417317Y-98054554D02*
X86798270Y-98054554D01*
%TO.C,J2*%
D11*
X83007237Y-101075735D02*
X83266834Y-101075735D01*
X83007237Y-101374886D02*
X83007237Y-101075735D01*
X83007237Y-104123735D02*
X83007237Y-103386908D01*
X84043040Y-101075735D02*
X84243703Y-101075735D01*
X84243703Y-104123735D02*
X83007237Y-104123735D01*
X90686171Y-101075735D02*
X91922637Y-101075735D01*
X90886834Y-104123735D02*
X90686171Y-104123735D01*
X91922637Y-101075735D02*
X91922637Y-101812562D01*
X91922637Y-103824584D02*
X91922637Y-104123735D01*
X91922637Y-104123735D02*
X91663040Y-104123735D01*
D12*
X83103237Y-101075735D02*
G75*
G02*
X82911237Y-101075735I-96000J0D01*
G01*
X82911237Y-101075735D02*
G75*
G02*
X83103237Y-101075735I96000J0D01*
G01*
D11*
X83007237Y-91075735D02*
X83266834Y-91075735D01*
X83007237Y-91374886D02*
X83007237Y-91075735D01*
X83007237Y-94123735D02*
X83007237Y-93386908D01*
X84043040Y-91075735D02*
X84243703Y-91075735D01*
X84243703Y-94123735D02*
X83007237Y-94123735D01*
X90686171Y-91075735D02*
X91922637Y-91075735D01*
X90886834Y-94123735D02*
X90686171Y-94123735D01*
X91922637Y-91075735D02*
X91922637Y-91812562D01*
X91922637Y-93824584D02*
X91922637Y-94123735D01*
X91922637Y-94123735D02*
X91663040Y-94123735D01*
D12*
X83103237Y-91075735D02*
G75*
G02*
X82911237Y-91075735I-96000J0D01*
G01*
X82911237Y-91075735D02*
G75*
G02*
X83103237Y-91075735I96000J0D01*
G01*
D11*
X83007237Y-81075735D02*
X83266834Y-81075735D01*
X83007237Y-81374886D02*
X83007237Y-81075735D01*
X83007237Y-84123735D02*
X83007237Y-83386908D01*
X84043040Y-81075735D02*
X84243703Y-81075735D01*
X84243703Y-84123735D02*
X83007237Y-84123735D01*
X90686171Y-81075735D02*
X91922637Y-81075735D01*
X90886834Y-84123735D02*
X90686171Y-84123735D01*
X91922637Y-81075735D02*
X91922637Y-81812562D01*
X91922637Y-83824584D02*
X91922637Y-84123735D01*
X91922637Y-84123735D02*
X91663040Y-84123735D01*
D12*
X83103237Y-81075735D02*
G75*
G02*
X82911237Y-81075735I-96000J0D01*
G01*
X82911237Y-81075735D02*
G75*
G02*
X83103237Y-81075735I96000J0D01*
G01*
D11*
X83007237Y-86075735D02*
X83266834Y-86075735D01*
X83007237Y-86374886D02*
X83007237Y-86075735D01*
X83007237Y-89123735D02*
X83007237Y-88386908D01*
X84043040Y-86075735D02*
X84243703Y-86075735D01*
X84243703Y-89123735D02*
X83007237Y-89123735D01*
X90686171Y-86075735D02*
X91922637Y-86075735D01*
X90886834Y-89123735D02*
X90686171Y-89123735D01*
X91922637Y-86075735D02*
X91922637Y-86812562D01*
X91922637Y-88824584D02*
X91922637Y-89123735D01*
X91922637Y-89123735D02*
X91663040Y-89123735D01*
D12*
X83103237Y-86075735D02*
G75*
G02*
X82911237Y-86075735I-96000J0D01*
G01*
X82911237Y-86075735D02*
G75*
G02*
X83103237Y-86075735I96000J0D01*
G01*
D11*
X83007237Y-96075735D02*
X83266834Y-96075735D01*
X83007237Y-96374886D02*
X83007237Y-96075735D01*
X83007237Y-99123735D02*
X83007237Y-98386908D01*
X84043040Y-96075735D02*
X84243703Y-96075735D01*
X84243703Y-99123735D02*
X83007237Y-99123735D01*
X90686171Y-96075735D02*
X91922637Y-96075735D01*
X90886834Y-99123735D02*
X90686171Y-99123735D01*
X91922637Y-96075735D02*
X91922637Y-96812562D01*
X91922637Y-98824584D02*
X91922637Y-99123735D01*
X91922637Y-99123735D02*
X91663040Y-99123735D01*
D12*
X83103237Y-96075735D02*
G75*
G02*
X82911237Y-96075735I-96000J0D01*
G01*
X82911237Y-96075735D02*
G75*
G02*
X83103237Y-96075735I96000J0D01*
G01*
%TD*%
M02*
