M48
; DRILL file KiCad 10.0.1 date 2026-08-28T15:59:36
; FORMAT={-:-/ absolute / metric / decimal}
; #@! TF.CreationDate,2026-08-28T15:59:36+02:00
; #@! TF.GenerationSoftware,Kicad,Pcbnew,10.0.1
; #@! TF.FileFunction,NonPlated,1,2,NPTH
FMAT,2
METRIC
; #@! TA.AperFunction,NonPlated,NPTH,ComponentDrill
T1C0.500
; #@! TA.AperFunction,NonPlated,NPTH,ComponentDrill
T2C0.508
; #@! TA.AperFunction,NonPlated,NPTH,ComponentDrill
T3C0.762
%
G90
G05
T1
X76.028Y-81.1
X76.028Y-104.1
X77.028Y-81.1
X77.028Y-104.1
X78.028Y-81.1
X78.028Y-104.1
X79.028Y-81.1
X79.028Y-104.1
X80.028Y-81.1
X80.028Y-104.1
X82.528Y-74.6
X82.528Y-75.6
X82.528Y-76.6
X82.528Y-77.6
X82.528Y-78.6
X82.528Y-106.6
X82.528Y-107.6
X82.528Y-108.6
X82.528Y-109.6
X82.528Y-110.6
X86.458Y-80.85
X86.458Y-84.35
X86.458Y-85.85
X86.458Y-89.35
X86.458Y-90.85
X86.458Y-94.35
X86.458Y-95.85
X86.458Y-99.35
X86.458Y-100.85
X86.458Y-104.35
X87.458Y-80.85
X87.458Y-84.35
X87.458Y-85.85
X87.458Y-89.35
X87.458Y-90.85
X87.458Y-94.35
X87.458Y-95.85
X87.458Y-99.35
X87.458Y-100.85
X87.458Y-104.35
X88.458Y-80.85
X88.458Y-84.35
X88.458Y-85.85
X88.458Y-89.35
X88.458Y-90.85
X88.458Y-94.35
X88.458Y-95.85
X88.458Y-99.35
X88.458Y-100.85
X88.458Y-104.35
X92.388Y-74.6
X92.388Y-75.6
X92.388Y-76.6
X92.388Y-77.6
X92.388Y-78.6
X92.388Y-106.6
X92.388Y-107.6
X92.388Y-108.6
X92.388Y-109.6
X92.388Y-110.6
X94.888Y-81.1
X94.888Y-104.1
X95.888Y-81.1
X95.888Y-104.1
X96.888Y-81.1
X96.888Y-104.1
X97.888Y-81.1
X97.888Y-104.1
X98.888Y-81.1
X98.888Y-104.1
T3
X83.655Y-81.675
X83.655Y-86.675
X83.655Y-91.675
X83.655Y-96.675
X83.655Y-101.675
X91.275Y-83.525
X91.275Y-88.525
X91.275Y-93.525
X91.275Y-98.525
X91.275Y-103.525
T2
X83.607Y-82.6G85X83.303Y-82.6
G05
X83.607Y-87.6G85X83.303Y-87.6
G05
X83.607Y-92.6G85X83.303Y-92.6
G05
X83.607Y-97.6G85X83.303Y-97.6
G05
X83.607Y-102.6G85X83.303Y-102.6
G05
X91.627Y-82.6G85X91.323Y-82.6
G05
X91.627Y-87.6G85X91.323Y-87.6
G05
X91.627Y-92.6G85X91.323Y-92.6
G05
X91.627Y-97.6G85X91.323Y-97.6
G05
X91.627Y-102.6G85X91.323Y-102.6
G05
M30
