%TF.GenerationSoftware,KiCad,Pcbnew,10.0.1*%
%TF.CreationDate,2026-08-28T15:59:30+02:00*%
%TF.ProjectId,Zeptoduck_panelized,5a657074-6f64-4756-936b-5f70616e656c,rev?*%
%TF.SameCoordinates,Original*%
%TF.FileFunction,Copper,L2,Bot*%
%TF.FilePolarity,Positive*%
%FSLAX46Y46*%
G04 Gerber Fmt 4.6, Leading zero omitted, Abs format (unit mm)*
G04 Created by KiCad (PCBNEW 10.0.1) date 2026-08-28 15:59:30*
%MOMM*%
%LPD*%
G01*
G04 APERTURE LIST*
%TA.AperFunction,WasherPad*%
%ADD10O,1.320800X1.016000*%
%TD*%
%TA.AperFunction,SMDPad,CuDef*%
%ADD11R,0.279400X1.041400*%
%TD*%
%TA.AperFunction,ViaPad*%
%ADD12C,0.450000*%
%TD*%
%TA.AperFunction,Conductor*%
%ADD13C,0.100000*%
%TD*%
G04 APERTURE END LIST*
D10*
%TO.P,J2,*%
%TO.N,*%
X91474937Y-102599735D03*
X83454937Y-102599735D03*
D11*
%TO.P,J2,A1,GND_A1*%
%TO.N,Board_4-GND*%
X84714937Y-101624736D03*
%TO.P,J2,A2,SSTXP1_A2*%
%TO.N,Board_4-unconnected-(J2-SSTXP1-PadA2)*%
X85214936Y-101624736D03*
%TO.P,J2,A3,SSTXN1_A3*%
%TO.N,Board_4-unconnected-(J2-SSTXN1-PadA3)*%
X85714938Y-101624736D03*
%TO.P,J2,A4,VBUS_A4*%
%TO.N,Board_4-/VBUS*%
X86214937Y-101624736D03*
%TO.P,J2,A5,CC1_A5*%
%TO.N,Board_4-Net-(J2-CC1)*%
X86714936Y-101624736D03*
%TO.P,J2,A6,DP1_A6*%
%TO.N,Board_4-/USB_D_P*%
X87214937Y-101624736D03*
%TO.P,J2,A7,DN1_A7*%
%TO.N,Board_4-/USB_D_M*%
X87714937Y-101624736D03*
%TO.P,J2,A8,SBU1_A8*%
%TO.N,Board_4-unconnected-(J2-SBU1-PadA8)*%
X88214938Y-101624736D03*
%TO.P,J2,A9,VBUS_A9*%
%TO.N,Board_4-/VBUS*%
X88714937Y-101624736D03*
%TO.P,J2,A10,SSRXN2_A10*%
%TO.N,Board_4-unconnected-(J2-SSRXN2-PadA10)*%
X89214936Y-101624736D03*
%TO.P,J2,A11,SSRXP2_A11*%
%TO.N,Board_4-unconnected-(J2-SSRXP2-PadA11)*%
X89714938Y-101624736D03*
%TO.P,J2,A12,GND_A12*%
%TO.N,Board_4-GND*%
X90214937Y-101624736D03*
%TO.P,J2,B1,GND_B1*%
X90214937Y-103574734D03*
%TO.P,J2,B2,SSTXP2_B2*%
%TO.N,Board_4-unconnected-(J2-SSTXP2-PadB2)*%
X89714938Y-103574734D03*
%TO.P,J2,B3,SSTXN2_B3*%
%TO.N,Board_4-unconnected-(J2-SSTXN2-PadB3)*%
X89214936Y-103574734D03*
%TO.P,J2,B4,VBUS_B4*%
%TO.N,Board_4-/VBUS*%
X88714937Y-103574734D03*
%TO.P,J2,B5,CC2_B5*%
%TO.N,Board_4-Net-(J2-CC2)*%
X88214938Y-103574734D03*
%TO.P,J2,B6,DP2_B6*%
%TO.N,Board_4-/USB_D_P*%
X87714937Y-103574734D03*
%TO.P,J2,B7,DN2_B7*%
%TO.N,Board_4-/USB_D_M*%
X87214937Y-103574734D03*
%TO.P,J2,B8,SBU2_B8*%
%TO.N,Board_4-unconnected-(J2-SBU2-PadB8)*%
X86714936Y-103574734D03*
%TO.P,J2,B9,VBUS_B9*%
%TO.N,Board_4-/VBUS*%
X86214937Y-103574734D03*
%TO.P,J2,B10,SSRXN1_B10*%
%TO.N,Board_4-unconnected-(J2-SSRXN1-PadB10)*%
X85714938Y-103574734D03*
%TO.P,J2,B11,SSRXP1_B11*%
%TO.N,Board_4-unconnected-(J2-SSRXP1-PadB11)*%
X85214936Y-103574734D03*
%TO.P,J2,B12,GND_B12*%
%TO.N,Board_4-GND*%
X84714937Y-103574734D03*
%TD*%
D10*
%TO.P,J2,*%
%TO.N,*%
X91474937Y-92599735D03*
X83454937Y-92599735D03*
D11*
%TO.P,J2,A1,GND_A1*%
%TO.N,Board_2-GND*%
X84714937Y-91624736D03*
%TO.P,J2,A2,SSTXP1_A2*%
%TO.N,Board_2-unconnected-(J2-SSTXP1-PadA2)*%
X85214936Y-91624736D03*
%TO.P,J2,A3,SSTXN1_A3*%
%TO.N,Board_2-unconnected-(J2-SSTXN1-PadA3)*%
X85714938Y-91624736D03*
%TO.P,J2,A4,VBUS_A4*%
%TO.N,Board_2-/VBUS*%
X86214937Y-91624736D03*
%TO.P,J2,A5,CC1_A5*%
%TO.N,Board_2-Net-(J2-CC1)*%
X86714936Y-91624736D03*
%TO.P,J2,A6,DP1_A6*%
%TO.N,Board_2-/USB_D_P*%
X87214937Y-91624736D03*
%TO.P,J2,A7,DN1_A7*%
%TO.N,Board_2-/USB_D_M*%
X87714937Y-91624736D03*
%TO.P,J2,A8,SBU1_A8*%
%TO.N,Board_2-unconnected-(J2-SBU1-PadA8)*%
X88214938Y-91624736D03*
%TO.P,J2,A9,VBUS_A9*%
%TO.N,Board_2-/VBUS*%
X88714937Y-91624736D03*
%TO.P,J2,A10,SSRXN2_A10*%
%TO.N,Board_2-unconnected-(J2-SSRXN2-PadA10)*%
X89214936Y-91624736D03*
%TO.P,J2,A11,SSRXP2_A11*%
%TO.N,Board_2-unconnected-(J2-SSRXP2-PadA11)*%
X89714938Y-91624736D03*
%TO.P,J2,A12,GND_A12*%
%TO.N,Board_2-GND*%
X90214937Y-91624736D03*
%TO.P,J2,B1,GND_B1*%
X90214937Y-93574734D03*
%TO.P,J2,B2,SSTXP2_B2*%
%TO.N,Board_2-unconnected-(J2-SSTXP2-PadB2)*%
X89714938Y-93574734D03*
%TO.P,J2,B3,SSTXN2_B3*%
%TO.N,Board_2-unconnected-(J2-SSTXN2-PadB3)*%
X89214936Y-93574734D03*
%TO.P,J2,B4,VBUS_B4*%
%TO.N,Board_2-/VBUS*%
X88714937Y-93574734D03*
%TO.P,J2,B5,CC2_B5*%
%TO.N,Board_2-Net-(J2-CC2)*%
X88214938Y-93574734D03*
%TO.P,J2,B6,DP2_B6*%
%TO.N,Board_2-/USB_D_P*%
X87714937Y-93574734D03*
%TO.P,J2,B7,DN2_B7*%
%TO.N,Board_2-/USB_D_M*%
X87214937Y-93574734D03*
%TO.P,J2,B8,SBU2_B8*%
%TO.N,Board_2-unconnected-(J2-SBU2-PadB8)*%
X86714936Y-93574734D03*
%TO.P,J2,B9,VBUS_B9*%
%TO.N,Board_2-/VBUS*%
X86214937Y-93574734D03*
%TO.P,J2,B10,SSRXN1_B10*%
%TO.N,Board_2-unconnected-(J2-SSRXN1-PadB10)*%
X85714938Y-93574734D03*
%TO.P,J2,B11,SSRXP1_B11*%
%TO.N,Board_2-unconnected-(J2-SSRXP1-PadB11)*%
X85214936Y-93574734D03*
%TO.P,J2,B12,GND_B12*%
%TO.N,Board_2-GND*%
X84714937Y-93574734D03*
%TD*%
D10*
%TO.P,J2,*%
%TO.N,*%
X91474937Y-82599735D03*
X83454937Y-82599735D03*
D11*
%TO.P,J2,A1,GND_A1*%
%TO.N,Board_0-GND*%
X84714937Y-81624736D03*
%TO.P,J2,A2,SSTXP1_A2*%
%TO.N,Board_0-unconnected-(J2-SSTXP1-PadA2)*%
X85214936Y-81624736D03*
%TO.P,J2,A3,SSTXN1_A3*%
%TO.N,Board_0-unconnected-(J2-SSTXN1-PadA3)*%
X85714938Y-81624736D03*
%TO.P,J2,A4,VBUS_A4*%
%TO.N,Board_0-/VBUS*%
X86214937Y-81624736D03*
%TO.P,J2,A5,CC1_A5*%
%TO.N,Board_0-Net-(J2-CC1)*%
X86714936Y-81624736D03*
%TO.P,J2,A6,DP1_A6*%
%TO.N,Board_0-/USB_D_P*%
X87214937Y-81624736D03*
%TO.P,J2,A7,DN1_A7*%
%TO.N,Board_0-/USB_D_M*%
X87714937Y-81624736D03*
%TO.P,J2,A8,SBU1_A8*%
%TO.N,Board_0-unconnected-(J2-SBU1-PadA8)*%
X88214938Y-81624736D03*
%TO.P,J2,A9,VBUS_A9*%
%TO.N,Board_0-/VBUS*%
X88714937Y-81624736D03*
%TO.P,J2,A10,SSRXN2_A10*%
%TO.N,Board_0-unconnected-(J2-SSRXN2-PadA10)*%
X89214936Y-81624736D03*
%TO.P,J2,A11,SSRXP2_A11*%
%TO.N,Board_0-unconnected-(J2-SSRXP2-PadA11)*%
X89714938Y-81624736D03*
%TO.P,J2,A12,GND_A12*%
%TO.N,Board_0-GND*%
X90214937Y-81624736D03*
%TO.P,J2,B1,GND_B1*%
X90214937Y-83574734D03*
%TO.P,J2,B2,SSTXP2_B2*%
%TO.N,Board_0-unconnected-(J2-SSTXP2-PadB2)*%
X89714938Y-83574734D03*
%TO.P,J2,B3,SSTXN2_B3*%
%TO.N,Board_0-unconnected-(J2-SSTXN2-PadB3)*%
X89214936Y-83574734D03*
%TO.P,J2,B4,VBUS_B4*%
%TO.N,Board_0-/VBUS*%
X88714937Y-83574734D03*
%TO.P,J2,B5,CC2_B5*%
%TO.N,Board_0-Net-(J2-CC2)*%
X88214938Y-83574734D03*
%TO.P,J2,B6,DP2_B6*%
%TO.N,Board_0-/USB_D_P*%
X87714937Y-83574734D03*
%TO.P,J2,B7,DN2_B7*%
%TO.N,Board_0-/USB_D_M*%
X87214937Y-83574734D03*
%TO.P,J2,B8,SBU2_B8*%
%TO.N,Board_0-unconnected-(J2-SBU2-PadB8)*%
X86714936Y-83574734D03*
%TO.P,J2,B9,VBUS_B9*%
%TO.N,Board_0-/VBUS*%
X86214937Y-83574734D03*
%TO.P,J2,B10,SSRXN1_B10*%
%TO.N,Board_0-unconnected-(J2-SSRXN1-PadB10)*%
X85714938Y-83574734D03*
%TO.P,J2,B11,SSRXP1_B11*%
%TO.N,Board_0-unconnected-(J2-SSRXP1-PadB11)*%
X85214936Y-83574734D03*
%TO.P,J2,B12,GND_B12*%
%TO.N,Board_0-GND*%
X84714937Y-83574734D03*
%TD*%
D10*
%TO.P,J2,*%
%TO.N,*%
X91474937Y-87599735D03*
X83454937Y-87599735D03*
D11*
%TO.P,J2,A1,GND_A1*%
%TO.N,Board_1-GND*%
X84714937Y-86624736D03*
%TO.P,J2,A2,SSTXP1_A2*%
%TO.N,Board_1-unconnected-(J2-SSTXP1-PadA2)*%
X85214936Y-86624736D03*
%TO.P,J2,A3,SSTXN1_A3*%
%TO.N,Board_1-unconnected-(J2-SSTXN1-PadA3)*%
X85714938Y-86624736D03*
%TO.P,J2,A4,VBUS_A4*%
%TO.N,Board_1-/VBUS*%
X86214937Y-86624736D03*
%TO.P,J2,A5,CC1_A5*%
%TO.N,Board_1-Net-(J2-CC1)*%
X86714936Y-86624736D03*
%TO.P,J2,A6,DP1_A6*%
%TO.N,Board_1-/USB_D_P*%
X87214937Y-86624736D03*
%TO.P,J2,A7,DN1_A7*%
%TO.N,Board_1-/USB_D_M*%
X87714937Y-86624736D03*
%TO.P,J2,A8,SBU1_A8*%
%TO.N,Board_1-unconnected-(J2-SBU1-PadA8)*%
X88214938Y-86624736D03*
%TO.P,J2,A9,VBUS_A9*%
%TO.N,Board_1-/VBUS*%
X88714937Y-86624736D03*
%TO.P,J2,A10,SSRXN2_A10*%
%TO.N,Board_1-unconnected-(J2-SSRXN2-PadA10)*%
X89214936Y-86624736D03*
%TO.P,J2,A11,SSRXP2_A11*%
%TO.N,Board_1-unconnected-(J2-SSRXP2-PadA11)*%
X89714938Y-86624736D03*
%TO.P,J2,A12,GND_A12*%
%TO.N,Board_1-GND*%
X90214937Y-86624736D03*
%TO.P,J2,B1,GND_B1*%
X90214937Y-88574734D03*
%TO.P,J2,B2,SSTXP2_B2*%
%TO.N,Board_1-unconnected-(J2-SSTXP2-PadB2)*%
X89714938Y-88574734D03*
%TO.P,J2,B3,SSTXN2_B3*%
%TO.N,Board_1-unconnected-(J2-SSTXN2-PadB3)*%
X89214936Y-88574734D03*
%TO.P,J2,B4,VBUS_B4*%
%TO.N,Board_1-/VBUS*%
X88714937Y-88574734D03*
%TO.P,J2,B5,CC2_B5*%
%TO.N,Board_1-Net-(J2-CC2)*%
X88214938Y-88574734D03*
%TO.P,J2,B6,DP2_B6*%
%TO.N,Board_1-/USB_D_P*%
X87714937Y-88574734D03*
%TO.P,J2,B7,DN2_B7*%
%TO.N,Board_1-/USB_D_M*%
X87214937Y-88574734D03*
%TO.P,J2,B8,SBU2_B8*%
%TO.N,Board_1-unconnected-(J2-SBU2-PadB8)*%
X86714936Y-88574734D03*
%TO.P,J2,B9,VBUS_B9*%
%TO.N,Board_1-/VBUS*%
X86214937Y-88574734D03*
%TO.P,J2,B10,SSRXN1_B10*%
%TO.N,Board_1-unconnected-(J2-SSRXN1-PadB10)*%
X85714938Y-88574734D03*
%TO.P,J2,B11,SSRXP1_B11*%
%TO.N,Board_1-unconnected-(J2-SSRXP1-PadB11)*%
X85214936Y-88574734D03*
%TO.P,J2,B12,GND_B12*%
%TO.N,Board_1-GND*%
X84714937Y-88574734D03*
%TD*%
D10*
%TO.P,J2,*%
%TO.N,*%
X91474937Y-97599735D03*
X83454937Y-97599735D03*
D11*
%TO.P,J2,A1,GND_A1*%
%TO.N,Board_3-GND*%
X84714937Y-96624736D03*
%TO.P,J2,A2,SSTXP1_A2*%
%TO.N,Board_3-unconnected-(J2-SSTXP1-PadA2)*%
X85214936Y-96624736D03*
%TO.P,J2,A3,SSTXN1_A3*%
%TO.N,Board_3-unconnected-(J2-SSTXN1-PadA3)*%
X85714938Y-96624736D03*
%TO.P,J2,A4,VBUS_A4*%
%TO.N,Board_3-/VBUS*%
X86214937Y-96624736D03*
%TO.P,J2,A5,CC1_A5*%
%TO.N,Board_3-Net-(J2-CC1)*%
X86714936Y-96624736D03*
%TO.P,J2,A6,DP1_A6*%
%TO.N,Board_3-/USB_D_P*%
X87214937Y-96624736D03*
%TO.P,J2,A7,DN1_A7*%
%TO.N,Board_3-/USB_D_M*%
X87714937Y-96624736D03*
%TO.P,J2,A8,SBU1_A8*%
%TO.N,Board_3-unconnected-(J2-SBU1-PadA8)*%
X88214938Y-96624736D03*
%TO.P,J2,A9,VBUS_A9*%
%TO.N,Board_3-/VBUS*%
X88714937Y-96624736D03*
%TO.P,J2,A10,SSRXN2_A10*%
%TO.N,Board_3-unconnected-(J2-SSRXN2-PadA10)*%
X89214936Y-96624736D03*
%TO.P,J2,A11,SSRXP2_A11*%
%TO.N,Board_3-unconnected-(J2-SSRXP2-PadA11)*%
X89714938Y-96624736D03*
%TO.P,J2,A12,GND_A12*%
%TO.N,Board_3-GND*%
X90214937Y-96624736D03*
%TO.P,J2,B1,GND_B1*%
X90214937Y-98574734D03*
%TO.P,J2,B2,SSTXP2_B2*%
%TO.N,Board_3-unconnected-(J2-SSTXP2-PadB2)*%
X89714938Y-98574734D03*
%TO.P,J2,B3,SSTXN2_B3*%
%TO.N,Board_3-unconnected-(J2-SSTXN2-PadB3)*%
X89214936Y-98574734D03*
%TO.P,J2,B4,VBUS_B4*%
%TO.N,Board_3-/VBUS*%
X88714937Y-98574734D03*
%TO.P,J2,B5,CC2_B5*%
%TO.N,Board_3-Net-(J2-CC2)*%
X88214938Y-98574734D03*
%TO.P,J2,B6,DP2_B6*%
%TO.N,Board_3-/USB_D_P*%
X87714937Y-98574734D03*
%TO.P,J2,B7,DN2_B7*%
%TO.N,Board_3-/USB_D_M*%
X87214937Y-98574734D03*
%TO.P,J2,B8,SBU2_B8*%
%TO.N,Board_3-unconnected-(J2-SBU2-PadB8)*%
X86714936Y-98574734D03*
%TO.P,J2,B9,VBUS_B9*%
%TO.N,Board_3-/VBUS*%
X86214937Y-98574734D03*
%TO.P,J2,B10,SSRXN1_B10*%
%TO.N,Board_3-unconnected-(J2-SSRXN1-PadB10)*%
X85714938Y-98574734D03*
%TO.P,J2,B11,SSRXP1_B11*%
%TO.N,Board_3-unconnected-(J2-SSRXP1-PadB11)*%
X85214936Y-98574734D03*
%TO.P,J2,B12,GND_B12*%
%TO.N,Board_3-GND*%
X84714937Y-98574734D03*
%TD*%
D12*
%TO.N,Board_4-GND*%
X89868487Y-102459735D03*
X84148487Y-103579735D03*
X82868487Y-101489735D03*
%TO.N,Board_4-/VBUS*%
X86208487Y-101409735D03*
X88714937Y-101624736D03*
%TO.N,Board_3-GND*%
X84148487Y-98579735D03*
X89868487Y-97459735D03*
X82868487Y-96489735D03*
%TO.N,Board_3-/VBUS*%
X86208487Y-96409735D03*
X88714937Y-96624736D03*
%TO.N,Board_2-Net-(J2-CC1)*%
X86714936Y-91399735D03*
%TO.N,Board_2-GND*%
X89868487Y-92459735D03*
X84148487Y-93579735D03*
X82868487Y-91489735D03*
%TO.N,Board_0-GND*%
X89868487Y-82459735D03*
X84148487Y-83579735D03*
X82868487Y-81489735D03*
%TO.N,Board_0-/VBUS*%
X86208487Y-81409735D03*
X88714937Y-81624736D03*
%TO.N,Board_4-/USB_D_P*%
X86498487Y-102809735D03*
%TO.N,Board_4-/USB_D_M*%
X87214937Y-103574734D03*
X87298487Y-102489735D03*
%TO.N,Board_2-Net-(J2-CC2)*%
X88214938Y-93574734D03*
%TO.N,Board_3-/USB_D_P*%
X86498487Y-97809735D03*
%TO.N,Board_3-/USB_D_M*%
X87214937Y-98574734D03*
X87298487Y-97489735D03*
%TO.N,Board_4-Net-(J2-CC1)*%
X86714936Y-101399735D03*
%TO.N,Board_2-/USB_D_P*%
X86498487Y-92809735D03*
%TO.N,Board_2-/USB_D_M*%
X87298487Y-92489735D03*
X87214937Y-93574734D03*
%TO.N,Board_1-/USB_D_P*%
X86498487Y-87809735D03*
%TO.N,Board_1-GND*%
X89868487Y-87459735D03*
X84148487Y-88579735D03*
X82868487Y-86489735D03*
%TO.N,Board_1-/USB_D_M*%
X87298487Y-87489735D03*
X87214937Y-88574734D03*
%TO.N,Board_0-Net-(J2-CC1)*%
X86714936Y-81399735D03*
%TO.N,Board_0-/USB_D_P*%
X86498487Y-82809735D03*
%TO.N,Board_0-/USB_D_M*%
X87298487Y-82489735D03*
X87214937Y-83574734D03*
%TO.N,Board_1-/VBUS*%
X86208487Y-86409735D03*
X88714937Y-86624736D03*
%TO.N,Board_1-Net-(J2-CC2)*%
X88214938Y-88574734D03*
%TO.N,Board_4-Net-(J2-CC2)*%
X88214938Y-103574734D03*
%TO.N,Board_2-/VBUS*%
X88714937Y-91624736D03*
X86208487Y-91409735D03*
%TO.N,Board_0-Net-(J2-CC2)*%
X88214938Y-83574734D03*
%TO.N,Board_3-Net-(J2-CC2)*%
X88214938Y-98574734D03*
%TO.N,Board_3-Net-(J2-CC1)*%
X86714936Y-96399735D03*
%TO.N,Board_1-Net-(J2-CC1)*%
X86714936Y-86399735D03*
%TD*%
%TO.N,Board_4-GND*%
D13*
X90214937Y-102806185D02*
X90214937Y-103574734D01*
X84714937Y-103574734D02*
X84714937Y-101624736D01*
X90214937Y-103574734D02*
X90214937Y-101624736D01*
X89868487Y-102459735D02*
X90214937Y-102806185D01*
X82868487Y-101489735D02*
X83138487Y-101219735D01*
X84405512Y-103574734D02*
X84714937Y-103574734D01*
X84309936Y-101219735D02*
X84714937Y-101624736D01*
X83138487Y-101219735D02*
X84309936Y-101219735D01*
X84400511Y-103579735D02*
X84405512Y-103574734D01*
X84148487Y-103579735D02*
X84400511Y-103579735D01*
%TO.N,Board_4-/VBUS*%
X86214937Y-101416185D02*
X86208487Y-101409735D01*
X86214937Y-101624736D02*
X86214937Y-101416185D01*
X86214937Y-101624736D02*
X86214937Y-103574734D01*
X88714937Y-103574734D02*
X88714937Y-101624736D01*
%TO.N,Board_3-GND*%
X82868487Y-96489735D02*
X83138487Y-96219735D01*
X89868487Y-97459735D02*
X90214937Y-97806185D01*
X84309936Y-96219735D02*
X84714937Y-96624736D01*
X84714937Y-98574734D02*
X84714937Y-96624736D01*
X84400511Y-98579735D02*
X84405512Y-98574734D01*
X83138487Y-96219735D02*
X84309936Y-96219735D01*
X84148487Y-98579735D02*
X84400511Y-98579735D01*
X84405512Y-98574734D02*
X84714937Y-98574734D01*
X90214937Y-97806185D02*
X90214937Y-98574734D01*
X90214937Y-98574734D02*
X90214937Y-96624736D01*
%TO.N,Board_3-/VBUS*%
X86214937Y-96624736D02*
X86214937Y-98574734D01*
X86214937Y-96416185D02*
X86208487Y-96409735D01*
X86214937Y-96624736D02*
X86214937Y-96416185D01*
X88714937Y-98574734D02*
X88714937Y-96624736D01*
%TO.N,Board_2-GND*%
X84309936Y-91219735D02*
X84714937Y-91624736D01*
X84714937Y-93574734D02*
X84714937Y-91624736D01*
X82868487Y-91489735D02*
X83138487Y-91219735D01*
X83138487Y-91219735D02*
X84309936Y-91219735D01*
X89868487Y-92459735D02*
X90214937Y-92806185D01*
X84400511Y-93579735D02*
X84405512Y-93574734D01*
X84148487Y-93579735D02*
X84400511Y-93579735D01*
X90214937Y-93574734D02*
X90214937Y-91624736D01*
X84405512Y-93574734D02*
X84714937Y-93574734D01*
X90214937Y-92806185D02*
X90214937Y-93574734D01*
%TO.N,Board_0-GND*%
X90214937Y-83574734D02*
X90214937Y-81624736D01*
X83138487Y-81219735D02*
X84309936Y-81219735D01*
X84405512Y-83574734D02*
X84714937Y-83574734D01*
X90214937Y-82806185D02*
X90214937Y-83574734D01*
X84309936Y-81219735D02*
X84714937Y-81624736D01*
X89868487Y-82459735D02*
X90214937Y-82806185D01*
X82868487Y-81489735D02*
X83138487Y-81219735D01*
X84148487Y-83579735D02*
X84400511Y-83579735D01*
X84400511Y-83579735D02*
X84405512Y-83574734D01*
X84714937Y-83574734D02*
X84714937Y-81624736D01*
%TO.N,Board_0-/VBUS*%
X88714937Y-83574734D02*
X88714937Y-81624736D01*
X86214937Y-81416185D02*
X86208487Y-81409735D01*
X86214937Y-81624736D02*
X86214937Y-83574734D01*
X86214937Y-81624736D02*
X86214937Y-81416185D01*
%TO.N,Board_4-/USB_D_P*%
X87714937Y-103314334D02*
X86878487Y-102477884D01*
X86878487Y-102477884D02*
X86878487Y-102429735D01*
X87214937Y-102093285D02*
X87214937Y-101649735D01*
X87714937Y-103137276D02*
X87714937Y-103314334D01*
X86498487Y-102809735D02*
X86878487Y-102429735D01*
X86878487Y-102429735D02*
X87214937Y-102093285D01*
%TO.N,Board_4-/USB_D_M*%
X87714937Y-102073285D02*
X87714937Y-101624736D01*
X87298487Y-102489735D02*
X87714937Y-102073285D01*
%TO.N,Board_3-/USB_D_P*%
X86878487Y-97477884D02*
X86878487Y-97429735D01*
X86878487Y-97429735D02*
X87214937Y-97093285D01*
X87714937Y-98137276D02*
X87714937Y-98314334D01*
X86498487Y-97809735D02*
X86878487Y-97429735D01*
X87214937Y-97093285D02*
X87214937Y-96649735D01*
X87714937Y-98314334D02*
X86878487Y-97477884D01*
%TO.N,Board_3-/USB_D_M*%
X87298487Y-97489735D02*
X87714937Y-97073285D01*
X87714937Y-97073285D02*
X87714937Y-96624736D01*
%TO.N,Board_2-/USB_D_P*%
X86878487Y-92429735D02*
X87214937Y-92093285D01*
X87714937Y-93314334D02*
X86878487Y-92477884D01*
X86878487Y-92477884D02*
X86878487Y-92429735D01*
X86498487Y-92809735D02*
X86878487Y-92429735D01*
X87214937Y-92093285D02*
X87214937Y-91649735D01*
X87714937Y-93137276D02*
X87714937Y-93314334D01*
%TO.N,Board_2-/USB_D_M*%
X87714937Y-92073285D02*
X87714937Y-91624736D01*
X87298487Y-92489735D02*
X87714937Y-92073285D01*
%TO.N,Board_1-/USB_D_P*%
X86878487Y-87477884D02*
X86878487Y-87429735D01*
X87714937Y-88314334D02*
X86878487Y-87477884D01*
X86878487Y-87429735D02*
X87214937Y-87093285D01*
X86498487Y-87809735D02*
X86878487Y-87429735D01*
X87714937Y-88137276D02*
X87714937Y-88314334D01*
X87214937Y-87093285D02*
X87214937Y-86649735D01*
%TO.N,Board_1-GND*%
X84714937Y-88574734D02*
X84714937Y-86624736D01*
X89868487Y-87459735D02*
X90214937Y-87806185D01*
X83138487Y-86219735D02*
X84309936Y-86219735D01*
X84309936Y-86219735D02*
X84714937Y-86624736D01*
X84405512Y-88574734D02*
X84714937Y-88574734D01*
X84148487Y-88579735D02*
X84400511Y-88579735D01*
X84400511Y-88579735D02*
X84405512Y-88574734D01*
X90214937Y-88574734D02*
X90214937Y-86624736D01*
X82868487Y-86489735D02*
X83138487Y-86219735D01*
X90214937Y-87806185D02*
X90214937Y-88574734D01*
%TO.N,Board_1-/USB_D_M*%
X87298487Y-87489735D02*
X87714937Y-87073285D01*
X87714937Y-87073285D02*
X87714937Y-86624736D01*
%TO.N,Board_0-/USB_D_P*%
X86498487Y-82809735D02*
X86878487Y-82429735D01*
X87214937Y-82093285D02*
X87214937Y-81649735D01*
X87714937Y-83137276D02*
X87714937Y-83314334D01*
X86878487Y-82477884D02*
X86878487Y-82429735D01*
X86878487Y-82429735D02*
X87214937Y-82093285D01*
X87714937Y-83314334D02*
X86878487Y-82477884D01*
%TO.N,Board_0-/USB_D_M*%
X87298487Y-82489735D02*
X87714937Y-82073285D01*
X87714937Y-82073285D02*
X87714937Y-81624736D01*
%TO.N,Board_1-/VBUS*%
X86214937Y-86624736D02*
X86214937Y-86416185D01*
X86214937Y-86416185D02*
X86208487Y-86409735D01*
X86214937Y-86624736D02*
X86214937Y-88574734D01*
X88714937Y-88574734D02*
X88714937Y-86624736D01*
%TO.N,Board_2-/VBUS*%
X88714937Y-93574734D02*
X88714937Y-91624736D01*
X86214937Y-91624736D02*
X86214937Y-93574734D01*
X86214937Y-91416185D02*
X86208487Y-91409735D01*
X86214937Y-91624736D02*
X86214937Y-91416185D01*
%TD*%
M02*
