%TF.GenerationSoftware,KiCad,Pcbnew,10.0.1*%
%TF.CreationDate,2026-08-28T15:59:29+02:00*%
%TF.ProjectId,Zeptoduck_panelized,5a657074-6f64-4756-936b-5f70616e656c,rev?*%
%TF.SameCoordinates,Original*%
%TF.FileFunction,Copper,L1,Top*%
%TF.FilePolarity,Positive*%
%FSLAX46Y46*%
G04 Gerber Fmt 4.6, Leading zero omitted, Abs format (unit mm)*
G04 Created by KiCad (PCBNEW 10.0.1) date 2026-08-28 15:59:29*
%MOMM*%
%LPD*%
G01*
G04 APERTURE LIST*
G04 Aperture macros list*
%AMRoundRect*
0 Rectangle with rounded corners*
0 $1 Rounding radius*
0 $2 $3 $4 $5 $6 $7 $8 $9 X,Y pos of 4 corners*
0 Add a 4 corners polygon primitive as box body*
4,1,4,$2,$3,$4,$5,$6,$7,$8,$9,$2,$3,0*
0 Add four circle primitives for the rounded corners*
1,1,$1+$1,$2,$3*
1,1,$1+$1,$4,$5*
1,1,$1+$1,$6,$7*
1,1,$1+$1,$8,$9*
0 Add four rect primitives between the rounded corners*
20,1,$1+$1,$2,$3,$4,$5,0*
20,1,$1+$1,$4,$5,$6,$7,0*
20,1,$1+$1,$6,$7,$8,$9,0*
20,1,$1+$1,$8,$9,$2,$3,0*%
%AMFreePoly0*
4,1,6,0.230000,0.054289,0.020711,-0.155000,-0.230000,-0.155000,-0.230000,0.155000,0.230000,0.155000,0.230000,0.054289,0.230000,0.054289,$1*%
%AMFreePoly1*
4,1,6,0.230000,-0.054289,0.230000,-0.155000,-0.230000,-0.155000,-0.230000,0.155000,0.020711,0.155000,0.230000,-0.054289,0.230000,-0.054289,$1*%
%AMFreePoly2*
4,1,6,0.230000,-0.155000,-0.230000,-0.155000,-0.230000,-0.054289,-0.020711,0.155000,0.230000,0.155000,0.230000,-0.155000,0.230000,-0.155000,$1*%
%AMFreePoly3*
4,1,6,0.230000,-0.155000,-0.020711,-0.155000,-0.230000,0.054289,-0.230000,0.155000,0.230000,0.155000,0.230000,-0.155000,0.230000,-0.155000,$1*%
G04 Aperture macros list end*
%TA.AperFunction,Conductor*%
%ADD10C,0.200000*%
%TD*%
%TA.AperFunction,SMDPad,CuDef*%
%ADD11RoundRect,0.100000X0.100000X-0.130000X0.100000X0.130000X-0.100000X0.130000X-0.100000X-0.130000X0*%
%TD*%
%TA.AperFunction,SMDPad,CuDef*%
%ADD12FreePoly0,0.000000*%
%TD*%
%TA.AperFunction,SMDPad,CuDef*%
%ADD13FreePoly1,0.000000*%
%TD*%
%TA.AperFunction,SMDPad,CuDef*%
%ADD14FreePoly2,0.000000*%
%TD*%
%TA.AperFunction,SMDPad,CuDef*%
%ADD15FreePoly3,0.000000*%
%TD*%
%TA.AperFunction,SMDPad,CuDef*%
%ADD16RoundRect,0.145000X0.000000X-0.205061X0.205061X0.000000X0.000000X0.205061X-0.205061X0.000000X0*%
%TD*%
%TA.AperFunction,SMDPad,CuDef*%
%ADD17RoundRect,0.100000X-0.130000X-0.100000X0.130000X-0.100000X0.130000X0.100000X-0.130000X0.100000X0*%
%TD*%
%TA.AperFunction,SMDPad,CuDef*%
%ADD18RoundRect,0.135000X-0.135000X-0.185000X0.135000X-0.185000X0.135000X0.185000X-0.135000X0.185000X0*%
%TD*%
%TA.AperFunction,BGAPad,CuDef*%
%ADD19C,0.225000*%
%TD*%
%TA.AperFunction,WasherPad*%
%ADD20O,1.320800X1.016000*%
%TD*%
%TA.AperFunction,ViaPad*%
%ADD21C,0.450000*%
%TD*%
%TA.AperFunction,Conductor*%
%ADD22C,0.100000*%
%TD*%
G04 APERTURE END LIST*
%TO.N,Board_0-/RST*%
D10*
X86557314Y-83391468D02*
X86838487Y-83391468D01*
X86838487Y-83668002D01*
X86557314Y-83668002D01*
X86557314Y-83391468D01*
%TA.AperFunction,Conductor*%
G36*
X86557314Y-83391468D02*
G01*
X86838487Y-83391468D01*
X86838487Y-83668002D01*
X86557314Y-83668002D01*
X86557314Y-83391468D01*
G37*
%TD.AperFunction*%
%TO.N,Board_1-/RST*%
X86557314Y-88391468D02*
X86838487Y-88391468D01*
X86838487Y-88668002D01*
X86557314Y-88668002D01*
X86557314Y-88391468D01*
%TA.AperFunction,Conductor*%
G36*
X86557314Y-88391468D02*
G01*
X86838487Y-88391468D01*
X86838487Y-88668002D01*
X86557314Y-88668002D01*
X86557314Y-88391468D01*
G37*
%TD.AperFunction*%
%TO.N,Board_2-/RST*%
X86557314Y-93391468D02*
X86838487Y-93391468D01*
X86838487Y-93668002D01*
X86557314Y-93668002D01*
X86557314Y-93391468D01*
%TA.AperFunction,Conductor*%
G36*
X86557314Y-93391468D02*
G01*
X86838487Y-93391468D01*
X86838487Y-93668002D01*
X86557314Y-93668002D01*
X86557314Y-93391468D01*
G37*
%TD.AperFunction*%
%TO.N,Board_3-/RST*%
X86557314Y-98391468D02*
X86838487Y-98391468D01*
X86838487Y-98668002D01*
X86557314Y-98668002D01*
X86557314Y-98391468D01*
%TA.AperFunction,Conductor*%
G36*
X86557314Y-98391468D02*
G01*
X86838487Y-98391468D01*
X86838487Y-98668002D01*
X86557314Y-98668002D01*
X86557314Y-98391468D01*
G37*
%TD.AperFunction*%
%TO.N,Board_4-/RST*%
X86557314Y-103391468D02*
X86838487Y-103391468D01*
X86838487Y-103668002D01*
X86557314Y-103668002D01*
X86557314Y-103391468D01*
%TA.AperFunction,Conductor*%
G36*
X86557314Y-103391468D02*
G01*
X86838487Y-103391468D01*
X86838487Y-103668002D01*
X86557314Y-103668002D01*
X86557314Y-103391468D01*
G37*
%TD.AperFunction*%
%TO.N,Board_0-/SWDIO*%
X91690506Y-81199735D02*
X92292692Y-81199735D01*
X92292692Y-81815440D01*
X91690506Y-81815440D01*
X91690506Y-81199735D01*
%TA.AperFunction,Conductor*%
G36*
X91690506Y-81199735D02*
G01*
X92292692Y-81199735D01*
X92292692Y-81815440D01*
X91690506Y-81815440D01*
X91690506Y-81199735D01*
G37*
%TD.AperFunction*%
%TO.N,Board_1-/SWDIO*%
X91690506Y-86199735D02*
X92292692Y-86199735D01*
X92292692Y-86815440D01*
X91690506Y-86815440D01*
X91690506Y-86199735D01*
%TA.AperFunction,Conductor*%
G36*
X91690506Y-86199735D02*
G01*
X92292692Y-86199735D01*
X92292692Y-86815440D01*
X91690506Y-86815440D01*
X91690506Y-86199735D01*
G37*
%TD.AperFunction*%
%TO.N,Board_2-/SWDIO*%
X91690506Y-91199735D02*
X92292692Y-91199735D01*
X92292692Y-91815440D01*
X91690506Y-91815440D01*
X91690506Y-91199735D01*
%TA.AperFunction,Conductor*%
G36*
X91690506Y-91199735D02*
G01*
X92292692Y-91199735D01*
X92292692Y-91815440D01*
X91690506Y-91815440D01*
X91690506Y-91199735D01*
G37*
%TD.AperFunction*%
%TO.N,Board_3-/SWDIO*%
X91690506Y-96199735D02*
X92292692Y-96199735D01*
X92292692Y-96815440D01*
X91690506Y-96815440D01*
X91690506Y-96199735D01*
%TA.AperFunction,Conductor*%
G36*
X91690506Y-96199735D02*
G01*
X92292692Y-96199735D01*
X92292692Y-96815440D01*
X91690506Y-96815440D01*
X91690506Y-96199735D01*
G37*
%TD.AperFunction*%
%TO.N,Board_4-/SWDIO*%
X91690506Y-101199735D02*
X92292692Y-101199735D01*
X92292692Y-101815440D01*
X91690506Y-101815440D01*
X91690506Y-101199735D01*
%TA.AperFunction,Conductor*%
G36*
X91690506Y-101199735D02*
G01*
X92292692Y-101199735D01*
X92292692Y-101815440D01*
X91690506Y-101815440D01*
X91690506Y-101199735D01*
G37*
%TD.AperFunction*%
%TO.N,Board_0-/SWCLK*%
X91793698Y-83247009D02*
X92288487Y-83247009D01*
X92288487Y-83999735D01*
X91793698Y-83999735D01*
X91793698Y-83247009D01*
%TA.AperFunction,Conductor*%
G36*
X91793698Y-83247009D02*
G01*
X92288487Y-83247009D01*
X92288487Y-83999735D01*
X91793698Y-83999735D01*
X91793698Y-83247009D01*
G37*
%TD.AperFunction*%
%TO.N,Board_1-/SWCLK*%
X91793698Y-88247009D02*
X92288487Y-88247009D01*
X92288487Y-88999735D01*
X91793698Y-88999735D01*
X91793698Y-88247009D01*
%TA.AperFunction,Conductor*%
G36*
X91793698Y-88247009D02*
G01*
X92288487Y-88247009D01*
X92288487Y-88999735D01*
X91793698Y-88999735D01*
X91793698Y-88247009D01*
G37*
%TD.AperFunction*%
%TO.N,Board_2-/SWCLK*%
X91793698Y-93247009D02*
X92288487Y-93247009D01*
X92288487Y-93999735D01*
X91793698Y-93999735D01*
X91793698Y-93247009D01*
%TA.AperFunction,Conductor*%
G36*
X91793698Y-93247009D02*
G01*
X92288487Y-93247009D01*
X92288487Y-93999735D01*
X91793698Y-93999735D01*
X91793698Y-93247009D01*
G37*
%TD.AperFunction*%
%TO.N,Board_3-/SWCLK*%
X91793698Y-98247009D02*
X92288487Y-98247009D01*
X92288487Y-98999735D01*
X91793698Y-98999735D01*
X91793698Y-98247009D01*
%TA.AperFunction,Conductor*%
G36*
X91793698Y-98247009D02*
G01*
X92288487Y-98247009D01*
X92288487Y-98999735D01*
X91793698Y-98999735D01*
X91793698Y-98247009D01*
G37*
%TD.AperFunction*%
%TO.N,Board_4-/SWCLK*%
X91793698Y-103247009D02*
X92288487Y-103247009D01*
X92288487Y-103999735D01*
X91793698Y-103999735D01*
X91793698Y-103247009D01*
%TA.AperFunction,Conductor*%
G36*
X91793698Y-103247009D02*
G01*
X92288487Y-103247009D01*
X92288487Y-103999735D01*
X91793698Y-103999735D01*
X91793698Y-103247009D01*
G37*
%TD.AperFunction*%
%TD*%
D11*
%TO.P,C2,1*%
%TO.N,Board_4-GND*%
X89398487Y-102629735D03*
%TO.P,C2,2*%
%TO.N,Board_4-/VBUS*%
X89398487Y-101989735D03*
%TD*%
D12*
%TO.P,U2,1,OUT_1*%
%TO.N,Board_3-/VDD*%
X87948487Y-96964735D03*
D13*
%TO.P,U2,2,GND_2*%
%TO.N,Board_3-GND*%
X87948487Y-97614735D03*
D14*
%TO.P,U2,3,EN_3*%
%TO.N,Board_3-/VBUS*%
X88808487Y-97614735D03*
D15*
%TO.P,U2,4,IN_4*%
X88808487Y-96964735D03*
D16*
%TO.P,U2,5,THV_5*%
%TO.N,Board_3-GND*%
X88378487Y-97289735D03*
%TD*%
D17*
%TO.P,C1,1*%
%TO.N,Board_3-GND*%
X83008487Y-98849735D03*
%TO.P,C1,2*%
%TO.N,Board_3-/VDD*%
X83648487Y-98849735D03*
%TD*%
D18*
%TO.P,R2,1*%
%TO.N,Board_2-Net-(J2-CC1)*%
X90258487Y-91559735D03*
%TO.P,R2,2*%
%TO.N,Board_2-GND*%
X91278487Y-91559735D03*
%TD*%
D17*
%TO.P,C3,1*%
%TO.N,Board_2-GND*%
X83008487Y-93369735D03*
%TO.P,C3,2*%
%TO.N,Board_2-/VDD*%
X83648487Y-93369735D03*
%TD*%
D11*
%TO.P,C2,1*%
%TO.N,Board_0-GND*%
X89398487Y-82629735D03*
%TO.P,C2,2*%
%TO.N,Board_0-/VBUS*%
X89398487Y-81989735D03*
%TD*%
D12*
%TO.P,U2,1,OUT_1*%
%TO.N,Board_4-/VDD*%
X87948487Y-101964735D03*
D13*
%TO.P,U2,2,GND_2*%
%TO.N,Board_4-GND*%
X87948487Y-102614735D03*
D14*
%TO.P,U2,3,EN_3*%
%TO.N,Board_4-/VBUS*%
X88808487Y-102614735D03*
D15*
%TO.P,U2,4,IN_4*%
X88808487Y-101964735D03*
D16*
%TO.P,U2,5,THV_5*%
%TO.N,Board_4-GND*%
X88378487Y-102289735D03*
%TD*%
D19*
%TO.P,U1,A1,PA02_A1*%
%TO.N,Board_4-unconnected-(U1-PA02-PadA1)*%
X84678487Y-101799735D03*
%TO.P,U1,A2,PA03_A2*%
%TO.N,Board_4-unconnected-(U1-PA03-PadA2)*%
X85078487Y-101799735D03*
%TO.P,U1,A3,PA04_A3*%
%TO.N,Board_4-unconnected-(U1-PA04-PadA3)*%
X85478487Y-101799735D03*
%TO.P,U1,A4,PA06_A4*%
%TO.N,Board_4-unconnected-(U1-PA06-PadA4)*%
X85878487Y-101799735D03*
%TO.P,U1,B1,VDD_B1*%
%TO.N,Board_4-/VDD*%
X84678487Y-102199735D03*
%TO.P,U1,B2,PA05_B2*%
%TO.N,Board_4-unconnected-(U1-PA05-PadB2)*%
X85078487Y-102199735D03*
%TO.P,U1,B3,PA07_B3*%
%TO.N,Board_4-unconnected-(U1-PA07-PadB3)*%
X85478487Y-102199735D03*
%TO.P,U1,B4,PA08/XIN_B4*%
%TO.N,Board_4-unconnected-(U1-PA08{slash}XIN-PadB4)*%
X85878487Y-102199735D03*
%TO.P,U1,C1,PA25_C1*%
%TO.N,Board_4-/USB_D_P*%
X84678487Y-102599735D03*
%TO.P,U1,C2,GND_C2*%
%TO.N,Board_4-GND*%
X85078487Y-102599735D03*
%TO.P,U1,C3,PA16_C3*%
%TO.N,Board_4-unconnected-(U1-PA16-PadC3)*%
X85478487Y-102599735D03*
%TO.P,U1,C4,PA09/XOUT_C4*%
%TO.N,Board_4-unconnected-(U1-PA09{slash}XOUT-PadC4)*%
X85878487Y-102599735D03*
%TO.P,U1,D1,PA24_D1*%
%TO.N,Board_4-/USB_D_M*%
X84678487Y-102999735D03*
%TO.P,U1,D2,PA30/SWCLK_D2*%
%TO.N,Board_4-/SWCLK*%
X85078487Y-102999735D03*
%TO.P,U1,D3,PA23_D3*%
%TO.N,Board_4-unconnected-(U1-PA23-PadD3)*%
X85478487Y-102999735D03*
%TO.P,U1,D4,PA14_D4*%
%TO.N,Board_4-unconnected-(U1-PA14-PadD4)*%
X85878487Y-102999735D03*
%TO.P,U1,E1,PA31/SWDIO_E1*%
%TO.N,Board_4-/SWDIO*%
X84678487Y-103399735D03*
%TO.P,U1,E2,PA28/~{RST}_E2*%
%TO.N,Board_4-/RST*%
X85078487Y-103399735D03*
%TO.P,U1,E3,PA22_E3*%
%TO.N,Board_4-unconnected-(U1-PA22-PadE3)*%
X85478487Y-103399735D03*
%TO.P,U1,E4,PA15_E4*%
%TO.N,Board_4-unconnected-(U1-PA15-PadE4)*%
X85878487Y-103399735D03*
%TD*%
D18*
%TO.P,R1,1*%
%TO.N,Board_2-Net-(J2-CC2)*%
X88918487Y-93459735D03*
%TO.P,R1,2*%
%TO.N,Board_2-GND*%
X89938487Y-93459735D03*
%TD*%
D19*
%TO.P,U1,A1,PA02_A1*%
%TO.N,Board_3-unconnected-(U1-PA02-PadA1)*%
X84678487Y-96799735D03*
%TO.P,U1,A2,PA03_A2*%
%TO.N,Board_3-unconnected-(U1-PA03-PadA2)*%
X85078487Y-96799735D03*
%TO.P,U1,A3,PA04_A3*%
%TO.N,Board_3-unconnected-(U1-PA04-PadA3)*%
X85478487Y-96799735D03*
%TO.P,U1,A4,PA06_A4*%
%TO.N,Board_3-unconnected-(U1-PA06-PadA4)*%
X85878487Y-96799735D03*
%TO.P,U1,B1,VDD_B1*%
%TO.N,Board_3-/VDD*%
X84678487Y-97199735D03*
%TO.P,U1,B2,PA05_B2*%
%TO.N,Board_3-unconnected-(U1-PA05-PadB2)*%
X85078487Y-97199735D03*
%TO.P,U1,B3,PA07_B3*%
%TO.N,Board_3-unconnected-(U1-PA07-PadB3)*%
X85478487Y-97199735D03*
%TO.P,U1,B4,PA08/XIN_B4*%
%TO.N,Board_3-unconnected-(U1-PA08{slash}XIN-PadB4)*%
X85878487Y-97199735D03*
%TO.P,U1,C1,PA25_C1*%
%TO.N,Board_3-/USB_D_P*%
X84678487Y-97599735D03*
%TO.P,U1,C2,GND_C2*%
%TO.N,Board_3-GND*%
X85078487Y-97599735D03*
%TO.P,U1,C3,PA16_C3*%
%TO.N,Board_3-unconnected-(U1-PA16-PadC3)*%
X85478487Y-97599735D03*
%TO.P,U1,C4,PA09/XOUT_C4*%
%TO.N,Board_3-unconnected-(U1-PA09{slash}XOUT-PadC4)*%
X85878487Y-97599735D03*
%TO.P,U1,D1,PA24_D1*%
%TO.N,Board_3-/USB_D_M*%
X84678487Y-97999735D03*
%TO.P,U1,D2,PA30/SWCLK_D2*%
%TO.N,Board_3-/SWCLK*%
X85078487Y-97999735D03*
%TO.P,U1,D3,PA23_D3*%
%TO.N,Board_3-unconnected-(U1-PA23-PadD3)*%
X85478487Y-97999735D03*
%TO.P,U1,D4,PA14_D4*%
%TO.N,Board_3-unconnected-(U1-PA14-PadD4)*%
X85878487Y-97999735D03*
%TO.P,U1,E1,PA31/SWDIO_E1*%
%TO.N,Board_3-/SWDIO*%
X84678487Y-98399735D03*
%TO.P,U1,E2,PA28/~{RST}_E2*%
%TO.N,Board_3-/RST*%
X85078487Y-98399735D03*
%TO.P,U1,E3,PA22_E3*%
%TO.N,Board_3-unconnected-(U1-PA22-PadE3)*%
X85478487Y-98399735D03*
%TO.P,U1,E4,PA15_E4*%
%TO.N,Board_3-unconnected-(U1-PA15-PadE4)*%
X85878487Y-98399735D03*
%TD*%
D18*
%TO.P,R2,1*%
%TO.N,Board_4-Net-(J2-CC1)*%
X90258487Y-101559735D03*
%TO.P,R2,2*%
%TO.N,Board_4-GND*%
X91278487Y-101559735D03*
%TD*%
D17*
%TO.P,C1,1*%
%TO.N,Board_2-GND*%
X83008487Y-93849735D03*
%TO.P,C1,2*%
%TO.N,Board_2-/VDD*%
X83648487Y-93849735D03*
%TD*%
D19*
%TO.P,U1,A1,PA02_A1*%
%TO.N,Board_2-unconnected-(U1-PA02-PadA1)*%
X84678487Y-91799735D03*
%TO.P,U1,A2,PA03_A2*%
%TO.N,Board_2-unconnected-(U1-PA03-PadA2)*%
X85078487Y-91799735D03*
%TO.P,U1,A3,PA04_A3*%
%TO.N,Board_2-unconnected-(U1-PA04-PadA3)*%
X85478487Y-91799735D03*
%TO.P,U1,A4,PA06_A4*%
%TO.N,Board_2-unconnected-(U1-PA06-PadA4)*%
X85878487Y-91799735D03*
%TO.P,U1,B1,VDD_B1*%
%TO.N,Board_2-/VDD*%
X84678487Y-92199735D03*
%TO.P,U1,B2,PA05_B2*%
%TO.N,Board_2-unconnected-(U1-PA05-PadB2)*%
X85078487Y-92199735D03*
%TO.P,U1,B3,PA07_B3*%
%TO.N,Board_2-unconnected-(U1-PA07-PadB3)*%
X85478487Y-92199735D03*
%TO.P,U1,B4,PA08/XIN_B4*%
%TO.N,Board_2-unconnected-(U1-PA08{slash}XIN-PadB4)*%
X85878487Y-92199735D03*
%TO.P,U1,C1,PA25_C1*%
%TO.N,Board_2-/USB_D_P*%
X84678487Y-92599735D03*
%TO.P,U1,C2,GND_C2*%
%TO.N,Board_2-GND*%
X85078487Y-92599735D03*
%TO.P,U1,C3,PA16_C3*%
%TO.N,Board_2-unconnected-(U1-PA16-PadC3)*%
X85478487Y-92599735D03*
%TO.P,U1,C4,PA09/XOUT_C4*%
%TO.N,Board_2-unconnected-(U1-PA09{slash}XOUT-PadC4)*%
X85878487Y-92599735D03*
%TO.P,U1,D1,PA24_D1*%
%TO.N,Board_2-/USB_D_M*%
X84678487Y-92999735D03*
%TO.P,U1,D2,PA30/SWCLK_D2*%
%TO.N,Board_2-/SWCLK*%
X85078487Y-92999735D03*
%TO.P,U1,D3,PA23_D3*%
%TO.N,Board_2-unconnected-(U1-PA23-PadD3)*%
X85478487Y-92999735D03*
%TO.P,U1,D4,PA14_D4*%
%TO.N,Board_2-unconnected-(U1-PA14-PadD4)*%
X85878487Y-92999735D03*
%TO.P,U1,E1,PA31/SWDIO_E1*%
%TO.N,Board_2-/SWDIO*%
X84678487Y-93399735D03*
%TO.P,U1,E2,PA28/~{RST}_E2*%
%TO.N,Board_2-/RST*%
X85078487Y-93399735D03*
%TO.P,U1,E3,PA22_E3*%
%TO.N,Board_2-unconnected-(U1-PA22-PadE3)*%
X85478487Y-93399735D03*
%TO.P,U1,E4,PA15_E4*%
%TO.N,Board_2-unconnected-(U1-PA15-PadE4)*%
X85878487Y-93399735D03*
%TD*%
%TO.P,U1,A1,PA02_A1*%
%TO.N,Board_1-unconnected-(U1-PA02-PadA1)*%
X84678487Y-86799735D03*
%TO.P,U1,A2,PA03_A2*%
%TO.N,Board_1-unconnected-(U1-PA03-PadA2)*%
X85078487Y-86799735D03*
%TO.P,U1,A3,PA04_A3*%
%TO.N,Board_1-unconnected-(U1-PA04-PadA3)*%
X85478487Y-86799735D03*
%TO.P,U1,A4,PA06_A4*%
%TO.N,Board_1-unconnected-(U1-PA06-PadA4)*%
X85878487Y-86799735D03*
%TO.P,U1,B1,VDD_B1*%
%TO.N,Board_1-/VDD*%
X84678487Y-87199735D03*
%TO.P,U1,B2,PA05_B2*%
%TO.N,Board_1-unconnected-(U1-PA05-PadB2)*%
X85078487Y-87199735D03*
%TO.P,U1,B3,PA07_B3*%
%TO.N,Board_1-unconnected-(U1-PA07-PadB3)*%
X85478487Y-87199735D03*
%TO.P,U1,B4,PA08/XIN_B4*%
%TO.N,Board_1-unconnected-(U1-PA08{slash}XIN-PadB4)*%
X85878487Y-87199735D03*
%TO.P,U1,C1,PA25_C1*%
%TO.N,Board_1-/USB_D_P*%
X84678487Y-87599735D03*
%TO.P,U1,C2,GND_C2*%
%TO.N,Board_1-GND*%
X85078487Y-87599735D03*
%TO.P,U1,C3,PA16_C3*%
%TO.N,Board_1-unconnected-(U1-PA16-PadC3)*%
X85478487Y-87599735D03*
%TO.P,U1,C4,PA09/XOUT_C4*%
%TO.N,Board_1-unconnected-(U1-PA09{slash}XOUT-PadC4)*%
X85878487Y-87599735D03*
%TO.P,U1,D1,PA24_D1*%
%TO.N,Board_1-/USB_D_M*%
X84678487Y-87999735D03*
%TO.P,U1,D2,PA30/SWCLK_D2*%
%TO.N,Board_1-/SWCLK*%
X85078487Y-87999735D03*
%TO.P,U1,D3,PA23_D3*%
%TO.N,Board_1-unconnected-(U1-PA23-PadD3)*%
X85478487Y-87999735D03*
%TO.P,U1,D4,PA14_D4*%
%TO.N,Board_1-unconnected-(U1-PA14-PadD4)*%
X85878487Y-87999735D03*
%TO.P,U1,E1,PA31/SWDIO_E1*%
%TO.N,Board_1-/SWDIO*%
X84678487Y-88399735D03*
%TO.P,U1,E2,PA28/~{RST}_E2*%
%TO.N,Board_1-/RST*%
X85078487Y-88399735D03*
%TO.P,U1,E3,PA22_E3*%
%TO.N,Board_1-unconnected-(U1-PA22-PadE3)*%
X85478487Y-88399735D03*
%TO.P,U1,E4,PA15_E4*%
%TO.N,Board_1-unconnected-(U1-PA15-PadE4)*%
X85878487Y-88399735D03*
%TD*%
D18*
%TO.P,R2,1*%
%TO.N,Board_0-Net-(J2-CC1)*%
X90258487Y-81559735D03*
%TO.P,R2,2*%
%TO.N,Board_0-GND*%
X91278487Y-81559735D03*
%TD*%
D19*
%TO.P,U1,A1,PA02_A1*%
%TO.N,Board_0-unconnected-(U1-PA02-PadA1)*%
X84678487Y-81799735D03*
%TO.P,U1,A2,PA03_A2*%
%TO.N,Board_0-unconnected-(U1-PA03-PadA2)*%
X85078487Y-81799735D03*
%TO.P,U1,A3,PA04_A3*%
%TO.N,Board_0-unconnected-(U1-PA04-PadA3)*%
X85478487Y-81799735D03*
%TO.P,U1,A4,PA06_A4*%
%TO.N,Board_0-unconnected-(U1-PA06-PadA4)*%
X85878487Y-81799735D03*
%TO.P,U1,B1,VDD_B1*%
%TO.N,Board_0-/VDD*%
X84678487Y-82199735D03*
%TO.P,U1,B2,PA05_B2*%
%TO.N,Board_0-unconnected-(U1-PA05-PadB2)*%
X85078487Y-82199735D03*
%TO.P,U1,B3,PA07_B3*%
%TO.N,Board_0-unconnected-(U1-PA07-PadB3)*%
X85478487Y-82199735D03*
%TO.P,U1,B4,PA08/XIN_B4*%
%TO.N,Board_0-unconnected-(U1-PA08{slash}XIN-PadB4)*%
X85878487Y-82199735D03*
%TO.P,U1,C1,PA25_C1*%
%TO.N,Board_0-/USB_D_P*%
X84678487Y-82599735D03*
%TO.P,U1,C2,GND_C2*%
%TO.N,Board_0-GND*%
X85078487Y-82599735D03*
%TO.P,U1,C3,PA16_C3*%
%TO.N,Board_0-unconnected-(U1-PA16-PadC3)*%
X85478487Y-82599735D03*
%TO.P,U1,C4,PA09/XOUT_C4*%
%TO.N,Board_0-unconnected-(U1-PA09{slash}XOUT-PadC4)*%
X85878487Y-82599735D03*
%TO.P,U1,D1,PA24_D1*%
%TO.N,Board_0-/USB_D_M*%
X84678487Y-82999735D03*
%TO.P,U1,D2,PA30/SWCLK_D2*%
%TO.N,Board_0-/SWCLK*%
X85078487Y-82999735D03*
%TO.P,U1,D3,PA23_D3*%
%TO.N,Board_0-unconnected-(U1-PA23-PadD3)*%
X85478487Y-82999735D03*
%TO.P,U1,D4,PA14_D4*%
%TO.N,Board_0-unconnected-(U1-PA14-PadD4)*%
X85878487Y-82999735D03*
%TO.P,U1,E1,PA31/SWDIO_E1*%
%TO.N,Board_0-/SWDIO*%
X84678487Y-83399735D03*
%TO.P,U1,E2,PA28/~{RST}_E2*%
%TO.N,Board_0-/RST*%
X85078487Y-83399735D03*
%TO.P,U1,E3,PA22_E3*%
%TO.N,Board_0-unconnected-(U1-PA22-PadE3)*%
X85478487Y-83399735D03*
%TO.P,U1,E4,PA15_E4*%
%TO.N,Board_0-unconnected-(U1-PA15-PadE4)*%
X85878487Y-83399735D03*
%TD*%
D17*
%TO.P,C3,1*%
%TO.N,Board_1-GND*%
X83008487Y-88369735D03*
%TO.P,C3,2*%
%TO.N,Board_1-/VDD*%
X83648487Y-88369735D03*
%TD*%
D12*
%TO.P,U2,1,OUT_1*%
%TO.N,Board_0-/VDD*%
X87948487Y-81964735D03*
D13*
%TO.P,U2,2,GND_2*%
%TO.N,Board_0-GND*%
X87948487Y-82614735D03*
D14*
%TO.P,U2,3,EN_3*%
%TO.N,Board_0-/VBUS*%
X88808487Y-82614735D03*
D15*
%TO.P,U2,4,IN_4*%
X88808487Y-81964735D03*
D16*
%TO.P,U2,5,THV_5*%
%TO.N,Board_0-GND*%
X88378487Y-82289735D03*
%TD*%
D11*
%TO.P,C2,1*%
%TO.N,Board_1-GND*%
X89398487Y-87629735D03*
%TO.P,C2,2*%
%TO.N,Board_1-/VBUS*%
X89398487Y-86989735D03*
%TD*%
D18*
%TO.P,R1,1*%
%TO.N,Board_1-Net-(J2-CC2)*%
X88918487Y-88459735D03*
%TO.P,R1,2*%
%TO.N,Board_1-GND*%
X89938487Y-88459735D03*
%TD*%
D12*
%TO.P,U2,1,OUT_1*%
%TO.N,Board_1-/VDD*%
X87948487Y-86964735D03*
D13*
%TO.P,U2,2,GND_2*%
%TO.N,Board_1-GND*%
X87948487Y-87614735D03*
D14*
%TO.P,U2,3,EN_3*%
%TO.N,Board_1-/VBUS*%
X88808487Y-87614735D03*
D15*
%TO.P,U2,4,IN_4*%
X88808487Y-86964735D03*
D16*
%TO.P,U2,5,THV_5*%
%TO.N,Board_1-GND*%
X88378487Y-87289735D03*
%TD*%
D11*
%TO.P,C2,1*%
%TO.N,Board_3-GND*%
X89398487Y-97629735D03*
%TO.P,C2,2*%
%TO.N,Board_3-/VBUS*%
X89398487Y-96989735D03*
%TD*%
D17*
%TO.P,C3,1*%
%TO.N,Board_4-GND*%
X83008487Y-103369735D03*
%TO.P,C3,2*%
%TO.N,Board_4-/VDD*%
X83648487Y-103369735D03*
%TD*%
D18*
%TO.P,R1,1*%
%TO.N,Board_4-Net-(J2-CC2)*%
X88918487Y-103459735D03*
%TO.P,R1,2*%
%TO.N,Board_4-GND*%
X89938487Y-103459735D03*
%TD*%
D12*
%TO.P,U2,1,OUT_1*%
%TO.N,Board_2-/VDD*%
X87948487Y-91964735D03*
D13*
%TO.P,U2,2,GND_2*%
%TO.N,Board_2-GND*%
X87948487Y-92614735D03*
D14*
%TO.P,U2,3,EN_3*%
%TO.N,Board_2-/VBUS*%
X88808487Y-92614735D03*
D15*
%TO.P,U2,4,IN_4*%
X88808487Y-91964735D03*
D16*
%TO.P,U2,5,THV_5*%
%TO.N,Board_2-GND*%
X88378487Y-92289735D03*
%TD*%
D17*
%TO.P,C1,1*%
%TO.N,Board_4-GND*%
X83008487Y-103849735D03*
%TO.P,C1,2*%
%TO.N,Board_4-/VDD*%
X83648487Y-103849735D03*
%TD*%
%TO.P,C1,1*%
%TO.N,Board_0-GND*%
X83008487Y-83849735D03*
%TO.P,C1,2*%
%TO.N,Board_0-/VDD*%
X83648487Y-83849735D03*
%TD*%
%TO.P,C1,1*%
%TO.N,Board_1-GND*%
X83008487Y-88849735D03*
%TO.P,C1,2*%
%TO.N,Board_1-/VDD*%
X83648487Y-88849735D03*
%TD*%
D18*
%TO.P,R1,1*%
%TO.N,Board_0-Net-(J2-CC2)*%
X88918487Y-83459735D03*
%TO.P,R1,2*%
%TO.N,Board_0-GND*%
X89938487Y-83459735D03*
%TD*%
%TO.P,R1,1*%
%TO.N,Board_3-Net-(J2-CC2)*%
X88918487Y-98459735D03*
%TO.P,R1,2*%
%TO.N,Board_3-GND*%
X89938487Y-98459735D03*
%TD*%
D11*
%TO.P,C2,1*%
%TO.N,Board_2-GND*%
X89398487Y-92629735D03*
%TO.P,C2,2*%
%TO.N,Board_2-/VBUS*%
X89398487Y-91989735D03*
%TD*%
D17*
%TO.P,C3,1*%
%TO.N,Board_0-GND*%
X83008487Y-83369735D03*
%TO.P,C3,2*%
%TO.N,Board_0-/VDD*%
X83648487Y-83369735D03*
%TD*%
D18*
%TO.P,R2,1*%
%TO.N,Board_3-Net-(J2-CC1)*%
X90258487Y-96559735D03*
%TO.P,R2,2*%
%TO.N,Board_3-GND*%
X91278487Y-96559735D03*
%TD*%
D17*
%TO.P,C3,1*%
%TO.N,Board_3-GND*%
X83008487Y-98369735D03*
%TO.P,C3,2*%
%TO.N,Board_3-/VDD*%
X83648487Y-98369735D03*
%TD*%
D18*
%TO.P,R2,1*%
%TO.N,Board_1-Net-(J2-CC1)*%
X90258487Y-86559735D03*
%TO.P,R2,2*%
%TO.N,Board_1-GND*%
X91278487Y-86559735D03*
%TD*%
D20*
%TO.P,J2,*%
%TO.N,*%
X91474937Y-102599735D03*
X83454937Y-102599735D03*
%TD*%
%TO.P,J2,*%
%TO.N,*%
X91474937Y-92599735D03*
X83454937Y-92599735D03*
%TD*%
%TO.P,J2,*%
%TO.N,*%
X91474937Y-82599735D03*
X83454937Y-82599735D03*
%TD*%
%TO.P,J2,*%
%TO.N,*%
X91474937Y-87599735D03*
X83454937Y-87599735D03*
%TD*%
%TO.P,J2,*%
%TO.N,*%
X91474937Y-97599735D03*
X83454937Y-97599735D03*
%TD*%
D21*
%TO.N,Board_4-GND*%
X89868487Y-102459735D03*
X84148487Y-103579735D03*
X82868487Y-101489735D03*
%TO.N,Board_4-/VBUS*%
X86208487Y-101409735D03*
X88714937Y-101624736D03*
%TO.N,Board_3-GND*%
X84148487Y-98579735D03*
X89868487Y-97459735D03*
X82868487Y-96489735D03*
%TO.N,Board_3-/VBUS*%
X86208487Y-96409735D03*
X88714937Y-96624736D03*
%TO.N,Board_2-Net-(J2-CC1)*%
X86714936Y-91399735D03*
%TO.N,Board_2-GND*%
X89868487Y-92459735D03*
X84148487Y-93579735D03*
X82868487Y-91489735D03*
%TO.N,Board_0-GND*%
X89868487Y-82459735D03*
X84148487Y-83579735D03*
X82868487Y-81489735D03*
%TO.N,Board_0-/VBUS*%
X86208487Y-81409735D03*
X88714937Y-81624736D03*
%TO.N,Board_4-/USB_D_P*%
X86498487Y-102809735D03*
%TO.N,Board_4-/USB_D_M*%
X87214937Y-103574734D03*
X87298487Y-102489735D03*
%TO.N,Board_2-Net-(J2-CC2)*%
X88214938Y-93574734D03*
%TO.N,Board_3-/USB_D_P*%
X86498487Y-97809735D03*
%TO.N,Board_3-/USB_D_M*%
X87214937Y-98574734D03*
X87298487Y-97489735D03*
%TO.N,Board_4-Net-(J2-CC1)*%
X86714936Y-101399735D03*
%TO.N,Board_2-/USB_D_P*%
X86498487Y-92809735D03*
%TO.N,Board_2-/USB_D_M*%
X87298487Y-92489735D03*
X87214937Y-93574734D03*
%TO.N,Board_1-/USB_D_P*%
X86498487Y-87809735D03*
%TO.N,Board_1-GND*%
X89868487Y-87459735D03*
X84148487Y-88579735D03*
X82868487Y-86489735D03*
%TO.N,Board_1-/USB_D_M*%
X87298487Y-87489735D03*
X87214937Y-88574734D03*
%TO.N,Board_0-Net-(J2-CC1)*%
X86714936Y-81399735D03*
%TO.N,Board_0-/USB_D_P*%
X86498487Y-82809735D03*
%TO.N,Board_0-/USB_D_M*%
X87298487Y-82489735D03*
X87214937Y-83574734D03*
%TO.N,Board_1-/VBUS*%
X86208487Y-86409735D03*
X88714937Y-86624736D03*
%TO.N,Board_1-Net-(J2-CC2)*%
X88214938Y-88574734D03*
%TO.N,Board_4-Net-(J2-CC2)*%
X88214938Y-103574734D03*
%TO.N,Board_2-/VBUS*%
X88714937Y-91624736D03*
X86208487Y-91409735D03*
%TO.N,Board_0-Net-(J2-CC2)*%
X88214938Y-83574734D03*
%TO.N,Board_3-Net-(J2-CC2)*%
X88214938Y-98574734D03*
%TO.N,Board_3-Net-(J2-CC1)*%
X86714936Y-96399735D03*
%TO.N,Board_1-Net-(J2-CC1)*%
X86714936Y-86399735D03*
%TD*%
%TO.N,Board_4-GND*%
D22*
X85278487Y-102399735D02*
X86588487Y-102399735D01*
X84358487Y-102559735D02*
X84518487Y-102399735D01*
X88378487Y-102819735D02*
X88378487Y-102289735D01*
X89568487Y-102459735D02*
X89398487Y-102629735D01*
X82688487Y-103049735D02*
X82688487Y-101669735D01*
X89398487Y-102629735D02*
X89058487Y-102969735D01*
X84148487Y-103579735D02*
X84148487Y-103431761D01*
X90988487Y-101559735D02*
X90088487Y-102459735D01*
X83008487Y-103849735D02*
X83008487Y-103369735D01*
X90088487Y-102459735D02*
X89868487Y-102459735D01*
X91278487Y-101559735D02*
X90988487Y-101559735D01*
X86818487Y-102169735D02*
X87503487Y-102169735D01*
X84148487Y-103431761D02*
X84078487Y-103361761D01*
X86588487Y-102399735D02*
X86818487Y-102169735D01*
X89763487Y-102564735D02*
X89763487Y-103519735D01*
X85078487Y-102599735D02*
X85278487Y-102399735D01*
X84078487Y-103361761D02*
X84078487Y-103249735D01*
X84078487Y-103249735D02*
X84358487Y-102969735D01*
X88528487Y-102969735D02*
X88378487Y-102819735D01*
X87503487Y-102169735D02*
X87948487Y-102614735D01*
X84878487Y-102399735D02*
X85078487Y-102599735D01*
X88378487Y-102289735D02*
X88273487Y-102289735D01*
X88273487Y-102289735D02*
X87948487Y-102614735D01*
X89868487Y-102459735D02*
X89763487Y-102564735D01*
X84358487Y-102969735D02*
X84358487Y-102559735D01*
X84518487Y-102399735D02*
X84878487Y-102399735D01*
X83008487Y-103369735D02*
X82688487Y-103049735D01*
X89058487Y-102969735D02*
X88528487Y-102969735D01*
X89868487Y-102459735D02*
X89568487Y-102459735D01*
X82688487Y-101669735D02*
X82868487Y-101489735D01*
%TO.N,Board_4-/VBUS*%
X88714937Y-101578285D02*
X88714937Y-101624736D01*
X88808487Y-101964735D02*
X88808487Y-101718286D01*
X87358487Y-101749735D02*
X87508487Y-101599735D01*
X88714937Y-101461185D02*
X88714937Y-101624736D01*
X88833487Y-101989735D02*
X88808487Y-101964735D01*
X86208487Y-101409735D02*
X86293487Y-101324735D01*
X88413488Y-101624736D02*
X88714937Y-101624736D01*
X89398487Y-101989735D02*
X88833487Y-101989735D01*
X88388487Y-101599735D02*
X88413488Y-101624736D01*
X88698487Y-101641186D02*
X88714937Y-101624736D01*
X88808487Y-102614735D02*
X88808487Y-101964735D01*
X86548487Y-101749735D02*
X87358487Y-101749735D01*
X87508487Y-101599735D02*
X88388487Y-101599735D01*
X88808487Y-101718286D02*
X88714937Y-101624736D01*
X86208487Y-101409735D02*
X86548487Y-101749735D01*
%TO.N,Board_3-/VDD*%
X84208487Y-97869735D02*
X84208487Y-97499735D01*
X83648487Y-98849735D02*
X83648487Y-98369735D01*
X83648487Y-98369735D02*
X83708487Y-98369735D01*
X84208487Y-97499735D02*
X84508487Y-97199735D01*
X84508487Y-97199735D02*
X84678487Y-97199735D01*
X84878487Y-96999735D02*
X86518487Y-96999735D01*
X86518487Y-96999735D02*
X86553487Y-96964735D01*
X84678487Y-97199735D02*
X84878487Y-96999735D01*
X86553487Y-96964735D02*
X87948487Y-96964735D01*
X83708487Y-98369735D02*
X84208487Y-97869735D01*
%TO.N,Board_3-GND*%
X88273487Y-97289735D02*
X87948487Y-97614735D01*
X86588487Y-97399735D02*
X86818487Y-97169735D01*
X84358487Y-97969735D02*
X84358487Y-97559735D01*
X83008487Y-98369735D02*
X82688487Y-98049735D01*
X84358487Y-97559735D02*
X84518487Y-97399735D01*
X89058487Y-97969735D02*
X88528487Y-97969735D01*
X91278487Y-96559735D02*
X90988487Y-96559735D01*
X83008487Y-98849735D02*
X83008487Y-98369735D01*
X84148487Y-98579735D02*
X84148487Y-98431761D01*
X89568487Y-97459735D02*
X89398487Y-97629735D01*
X90988487Y-96559735D02*
X90088487Y-97459735D01*
X89868487Y-97459735D02*
X89568487Y-97459735D01*
X89868487Y-97459735D02*
X89763487Y-97564735D01*
X87503487Y-97169735D02*
X87948487Y-97614735D01*
X85278487Y-97399735D02*
X86588487Y-97399735D01*
X86818487Y-97169735D02*
X87503487Y-97169735D01*
X84148487Y-98431761D02*
X84078487Y-98361761D01*
X82688487Y-98049735D02*
X82688487Y-96669735D01*
X82688487Y-96669735D02*
X82868487Y-96489735D01*
X89398487Y-97629735D02*
X89058487Y-97969735D01*
X88528487Y-97969735D02*
X88378487Y-97819735D01*
X84078487Y-98361761D02*
X84078487Y-98249735D01*
X88378487Y-97819735D02*
X88378487Y-97289735D01*
X90088487Y-97459735D02*
X89868487Y-97459735D01*
X89763487Y-97564735D02*
X89763487Y-98519735D01*
X85078487Y-97599735D02*
X85278487Y-97399735D01*
X84518487Y-97399735D02*
X84878487Y-97399735D01*
X88378487Y-97289735D02*
X88273487Y-97289735D01*
X84878487Y-97399735D02*
X85078487Y-97599735D01*
X84078487Y-98249735D02*
X84358487Y-97969735D01*
%TO.N,Board_3-/VBUS*%
X88698487Y-96641186D02*
X88714937Y-96624736D01*
X87358487Y-96749735D02*
X87508487Y-96599735D01*
X88808487Y-96718286D02*
X88714937Y-96624736D01*
X86208487Y-96409735D02*
X86293487Y-96324735D01*
X86208487Y-96409735D02*
X86548487Y-96749735D01*
X87508487Y-96599735D02*
X88388487Y-96599735D01*
X88714937Y-96578285D02*
X88714937Y-96624736D01*
X88808487Y-97614735D02*
X88808487Y-96964735D01*
X88833487Y-96989735D02*
X88808487Y-96964735D01*
X89398487Y-96989735D02*
X88833487Y-96989735D01*
X88413488Y-96624736D02*
X88714937Y-96624736D01*
X88388487Y-96599735D02*
X88413488Y-96624736D01*
X88714937Y-96461185D02*
X88714937Y-96624736D01*
X88808487Y-96964735D02*
X88808487Y-96718286D01*
X86548487Y-96749735D02*
X87358487Y-96749735D01*
%TO.N,Board_2-Net-(J2-CC1)*%
X89978487Y-91279735D02*
X90258487Y-91559735D01*
X87059937Y-91279735D02*
X89978487Y-91279735D01*
X86939937Y-91399735D02*
X87059937Y-91279735D01*
X86714936Y-91399735D02*
X86939937Y-91399735D01*
%TO.N,Board_2-GND*%
X82688487Y-91669735D02*
X82868487Y-91489735D01*
X88378487Y-92819735D02*
X88378487Y-92289735D01*
X89398487Y-92629735D02*
X89058487Y-92969735D01*
X89058487Y-92969735D02*
X88528487Y-92969735D01*
X86818487Y-92169735D02*
X87503487Y-92169735D01*
X83008487Y-93369735D02*
X82688487Y-93049735D01*
X89868487Y-92459735D02*
X89763487Y-92564735D01*
X90088487Y-92459735D02*
X89868487Y-92459735D01*
X84518487Y-92399735D02*
X84878487Y-92399735D01*
X87503487Y-92169735D02*
X87948487Y-92614735D01*
X89868487Y-92459735D02*
X89568487Y-92459735D01*
X89568487Y-92459735D02*
X89398487Y-92629735D01*
X85078487Y-92599735D02*
X85278487Y-92399735D01*
X82688487Y-93049735D02*
X82688487Y-91669735D01*
X88528487Y-92969735D02*
X88378487Y-92819735D01*
X89763487Y-92564735D02*
X89763487Y-93519735D01*
X84078487Y-93361761D02*
X84078487Y-93249735D01*
X84148487Y-93579735D02*
X84148487Y-93431761D01*
X90988487Y-91559735D02*
X90088487Y-92459735D01*
X84078487Y-93249735D02*
X84358487Y-92969735D01*
X85278487Y-92399735D02*
X86588487Y-92399735D01*
X91278487Y-91559735D02*
X90988487Y-91559735D01*
X84358487Y-92969735D02*
X84358487Y-92559735D01*
X83008487Y-93849735D02*
X83008487Y-93369735D01*
X88378487Y-92289735D02*
X88273487Y-92289735D01*
X84878487Y-92399735D02*
X85078487Y-92599735D01*
X88273487Y-92289735D02*
X87948487Y-92614735D01*
X86588487Y-92399735D02*
X86818487Y-92169735D01*
X84358487Y-92559735D02*
X84518487Y-92399735D01*
X84148487Y-93431761D02*
X84078487Y-93361761D01*
%TO.N,Board_2-/VDD*%
X83708487Y-93369735D02*
X84208487Y-92869735D01*
X86553487Y-91964735D02*
X87948487Y-91964735D01*
X84678487Y-92199735D02*
X84878487Y-91999735D01*
X84508487Y-92199735D02*
X84678487Y-92199735D01*
X84878487Y-91999735D02*
X86518487Y-91999735D01*
X83648487Y-93369735D02*
X83708487Y-93369735D01*
X84208487Y-92499735D02*
X84508487Y-92199735D01*
X83648487Y-93849735D02*
X83648487Y-93369735D01*
X84208487Y-92869735D02*
X84208487Y-92499735D01*
X86518487Y-91999735D02*
X86553487Y-91964735D01*
%TO.N,Board_0-GND*%
X89398487Y-82629735D02*
X89058487Y-82969735D01*
X90988487Y-81559735D02*
X90088487Y-82459735D01*
X86588487Y-82399735D02*
X86818487Y-82169735D01*
X84878487Y-82399735D02*
X85078487Y-82599735D01*
X83008487Y-83369735D02*
X82688487Y-83049735D01*
X84358487Y-82559735D02*
X84518487Y-82399735D01*
X89763487Y-82564735D02*
X89763487Y-83519735D01*
X85278487Y-82399735D02*
X86588487Y-82399735D01*
X85078487Y-82599735D02*
X85278487Y-82399735D01*
X90088487Y-82459735D02*
X89868487Y-82459735D01*
X84518487Y-82399735D02*
X84878487Y-82399735D01*
X87503487Y-82169735D02*
X87948487Y-82614735D01*
X84078487Y-83249735D02*
X84358487Y-82969735D01*
X89058487Y-82969735D02*
X88528487Y-82969735D01*
X86818487Y-82169735D02*
X87503487Y-82169735D01*
X91278487Y-81559735D02*
X90988487Y-81559735D01*
X82688487Y-81669735D02*
X82868487Y-81489735D01*
X84078487Y-83361761D02*
X84078487Y-83249735D01*
X88378487Y-82819735D02*
X88378487Y-82289735D01*
X84148487Y-83579735D02*
X84148487Y-83431761D01*
X89868487Y-82459735D02*
X89763487Y-82564735D01*
X84148487Y-83431761D02*
X84078487Y-83361761D01*
X83008487Y-83849735D02*
X83008487Y-83369735D01*
X89868487Y-82459735D02*
X89568487Y-82459735D01*
X88378487Y-82289735D02*
X88273487Y-82289735D01*
X88528487Y-82969735D02*
X88378487Y-82819735D01*
X88273487Y-82289735D02*
X87948487Y-82614735D01*
X82688487Y-83049735D02*
X82688487Y-81669735D01*
X84358487Y-82969735D02*
X84358487Y-82559735D01*
X89568487Y-82459735D02*
X89398487Y-82629735D01*
%TO.N,Board_0-/VBUS*%
X86208487Y-81409735D02*
X86293487Y-81324735D01*
X86548487Y-81749735D02*
X87358487Y-81749735D01*
X88714937Y-81578285D02*
X88714937Y-81624736D01*
X88808487Y-82614735D02*
X88808487Y-81964735D01*
X88808487Y-81964735D02*
X88808487Y-81718286D01*
X86208487Y-81409735D02*
X86548487Y-81749735D01*
X87508487Y-81599735D02*
X88388487Y-81599735D01*
X87358487Y-81749735D02*
X87508487Y-81599735D01*
X88714937Y-81461185D02*
X88714937Y-81624736D01*
X88388487Y-81599735D02*
X88413488Y-81624736D01*
X89398487Y-81989735D02*
X88833487Y-81989735D01*
X88698487Y-81641186D02*
X88714937Y-81624736D01*
X88833487Y-81989735D02*
X88808487Y-81964735D01*
X88413488Y-81624736D02*
X88714937Y-81624736D01*
X88808487Y-81718286D02*
X88714937Y-81624736D01*
%TO.N,Board_4-/VDD*%
X83708487Y-103369735D02*
X84208487Y-102869735D01*
X86518487Y-101999735D02*
X86553487Y-101964735D01*
X83648487Y-103369735D02*
X83708487Y-103369735D01*
X84208487Y-102869735D02*
X84208487Y-102499735D01*
X84208487Y-102499735D02*
X84508487Y-102199735D01*
X86553487Y-101964735D02*
X87948487Y-101964735D01*
X84508487Y-102199735D02*
X84678487Y-102199735D01*
X83648487Y-103849735D02*
X83648487Y-103369735D01*
X84678487Y-102199735D02*
X84878487Y-101999735D01*
X84878487Y-101999735D02*
X86518487Y-101999735D01*
%TO.N,Board_4-/USB_D_P*%
X84848487Y-102639735D02*
X85018487Y-102809735D01*
X84718487Y-102639735D02*
X84848487Y-102639735D01*
X84678487Y-102599735D02*
X84718487Y-102639735D01*
X85018487Y-102809735D02*
X86498487Y-102809735D01*
%TO.N,Board_4-/USB_D_M*%
X87214937Y-103574734D02*
X87214937Y-102613285D01*
X87214937Y-102613285D02*
X87298487Y-102529735D01*
X87143486Y-103574734D02*
X87214937Y-103574734D01*
X84678487Y-102999735D02*
X84878487Y-103199735D01*
X86588487Y-103199735D02*
X87298487Y-102489735D01*
X84878487Y-103199735D02*
X86588487Y-103199735D01*
X87298487Y-102529735D02*
X87298487Y-102489735D01*
%TO.N,Board_4-/SWCLK*%
X84848487Y-103999735D02*
X91528487Y-103999735D01*
X84438487Y-103129735D02*
X84438487Y-103589735D01*
X91528487Y-103999735D02*
X91758487Y-103769735D01*
X84488487Y-102909735D02*
X84488487Y-103079735D01*
X84928487Y-102999735D02*
X84738487Y-102809735D01*
X91758487Y-103594735D02*
X91948487Y-103404735D01*
X84438487Y-103589735D02*
X84848487Y-103999735D01*
X84738487Y-102809735D02*
X84588487Y-102809735D01*
X84488487Y-103079735D02*
X84438487Y-103129735D01*
X85078487Y-102999735D02*
X84928487Y-102999735D01*
X84588487Y-102809735D02*
X84488487Y-102909735D01*
X91758487Y-103769735D02*
X91758487Y-103594735D01*
%TO.N,Board_4-/SWDIO*%
X85148487Y-103869735D02*
X90418487Y-103869735D01*
X84678487Y-103399735D02*
X85148487Y-103869735D01*
X91499704Y-101989735D02*
X91986599Y-101502840D01*
X90418487Y-103869735D02*
X90678487Y-103609735D01*
X90898487Y-101989735D02*
X91499704Y-101989735D01*
X90678487Y-102209735D02*
X90898487Y-101989735D01*
X90678487Y-103609735D02*
X90678487Y-102209735D01*
%TO.N,Board_4-/RST*%
X85298487Y-103619735D02*
X86607900Y-103619735D01*
X85078487Y-103399735D02*
X85298487Y-103619735D01*
%TO.N,Board_2-Net-(J2-CC2)*%
X88269937Y-93519735D02*
X88214938Y-93574734D01*
X89123487Y-93519735D02*
X88269937Y-93519735D01*
%TO.N,Board_3-/USB_D_P*%
X84718487Y-97639735D02*
X84848487Y-97639735D01*
X85018487Y-97809735D02*
X86498487Y-97809735D01*
X84848487Y-97639735D02*
X85018487Y-97809735D01*
X84678487Y-97599735D02*
X84718487Y-97639735D01*
%TO.N,Board_3-/USB_D_M*%
X87143486Y-98574734D02*
X87214937Y-98574734D01*
X87298487Y-97529735D02*
X87298487Y-97489735D01*
X87214937Y-97613285D02*
X87298487Y-97529735D01*
X84678487Y-97999735D02*
X84878487Y-98199735D01*
X87214937Y-98574734D02*
X87214937Y-97613285D01*
X86588487Y-98199735D02*
X87298487Y-97489735D01*
X84878487Y-98199735D02*
X86588487Y-98199735D01*
%TO.N,Board_3-/SWCLK*%
X84488487Y-97909735D02*
X84488487Y-98079735D01*
X91528487Y-98999735D02*
X91758487Y-98769735D01*
X84438487Y-98589735D02*
X84848487Y-98999735D01*
X85078487Y-97999735D02*
X84928487Y-97999735D01*
X84738487Y-97809735D02*
X84588487Y-97809735D01*
X84588487Y-97809735D02*
X84488487Y-97909735D01*
X84928487Y-97999735D02*
X84738487Y-97809735D01*
X91758487Y-98769735D02*
X91758487Y-98594735D01*
X91758487Y-98594735D02*
X91948487Y-98404735D01*
X84488487Y-98079735D02*
X84438487Y-98129735D01*
X84438487Y-98129735D02*
X84438487Y-98589735D01*
X84848487Y-98999735D02*
X91528487Y-98999735D01*
%TO.N,Board_3-/SWDIO*%
X90678487Y-97209735D02*
X90898487Y-96989735D01*
X84678487Y-98399735D02*
X85148487Y-98869735D01*
X90678487Y-98609735D02*
X90678487Y-97209735D01*
X85148487Y-98869735D02*
X90418487Y-98869735D01*
X90898487Y-96989735D02*
X91499704Y-96989735D01*
X91499704Y-96989735D02*
X91986599Y-96502840D01*
X90418487Y-98869735D02*
X90678487Y-98609735D01*
%TO.N,Board_3-/RST*%
X85078487Y-98399735D02*
X85298487Y-98619735D01*
X85298487Y-98619735D02*
X86607900Y-98619735D01*
%TO.N,Board_4-Net-(J2-CC1)*%
X89978487Y-101279735D02*
X90258487Y-101559735D01*
X87059937Y-101279735D02*
X89978487Y-101279735D01*
X86714936Y-101399735D02*
X86939937Y-101399735D01*
X86939937Y-101399735D02*
X87059937Y-101279735D01*
%TO.N,Board_2-/USB_D_P*%
X84848487Y-92639735D02*
X85018487Y-92809735D01*
X84718487Y-92639735D02*
X84848487Y-92639735D01*
X84678487Y-92599735D02*
X84718487Y-92639735D01*
X85018487Y-92809735D02*
X86498487Y-92809735D01*
%TO.N,Board_2-/USB_D_M*%
X87214937Y-93574734D02*
X87214937Y-92613285D01*
X87298487Y-92529735D02*
X87298487Y-92489735D01*
X87214937Y-92613285D02*
X87298487Y-92529735D01*
X84678487Y-92999735D02*
X84878487Y-93199735D01*
X86588487Y-93199735D02*
X87298487Y-92489735D01*
X87143486Y-93574734D02*
X87214937Y-93574734D01*
X84878487Y-93199735D02*
X86588487Y-93199735D01*
%TO.N,Board_2-/SWCLK*%
X85078487Y-92999735D02*
X84928487Y-92999735D01*
X84438487Y-93129735D02*
X84438487Y-93589735D01*
X84438487Y-93589735D02*
X84848487Y-93999735D01*
X84488487Y-92909735D02*
X84488487Y-93079735D01*
X91528487Y-93999735D02*
X91758487Y-93769735D01*
X84488487Y-93079735D02*
X84438487Y-93129735D01*
X91758487Y-93594735D02*
X91948487Y-93404735D01*
X84588487Y-92809735D02*
X84488487Y-92909735D01*
X84928487Y-92999735D02*
X84738487Y-92809735D01*
X84738487Y-92809735D02*
X84588487Y-92809735D01*
X91758487Y-93769735D02*
X91758487Y-93594735D01*
X84848487Y-93999735D02*
X91528487Y-93999735D01*
%TO.N,Board_2-/SWDIO*%
X90678487Y-92209735D02*
X90898487Y-91989735D01*
X90678487Y-93609735D02*
X90678487Y-92209735D01*
X90898487Y-91989735D02*
X91499704Y-91989735D01*
X91499704Y-91989735D02*
X91986599Y-91502840D01*
X90418487Y-93869735D02*
X90678487Y-93609735D01*
X85148487Y-93869735D02*
X90418487Y-93869735D01*
X84678487Y-93399735D02*
X85148487Y-93869735D01*
%TO.N,Board_2-/RST*%
X85078487Y-93399735D02*
X85298487Y-93619735D01*
X85298487Y-93619735D02*
X86607900Y-93619735D01*
%TO.N,Board_1-/VDD*%
X83708487Y-88369735D02*
X84208487Y-87869735D01*
X84208487Y-87499735D02*
X84508487Y-87199735D01*
X84508487Y-87199735D02*
X84678487Y-87199735D01*
X83648487Y-88849735D02*
X83648487Y-88369735D01*
X84208487Y-87869735D02*
X84208487Y-87499735D01*
X83648487Y-88369735D02*
X83708487Y-88369735D01*
X86518487Y-86999735D02*
X86553487Y-86964735D01*
X86553487Y-86964735D02*
X87948487Y-86964735D01*
X84878487Y-86999735D02*
X86518487Y-86999735D01*
X84678487Y-87199735D02*
X84878487Y-86999735D01*
%TO.N,Board_1-/USB_D_P*%
X85018487Y-87809735D02*
X86498487Y-87809735D01*
X84718487Y-87639735D02*
X84848487Y-87639735D01*
X84678487Y-87599735D02*
X84718487Y-87639735D01*
X84848487Y-87639735D02*
X85018487Y-87809735D01*
%TO.N,Board_1-GND*%
X89763487Y-87564735D02*
X89763487Y-88519735D01*
X82688487Y-88049735D02*
X82688487Y-86669735D01*
X89868487Y-87459735D02*
X89763487Y-87564735D01*
X85278487Y-87399735D02*
X86588487Y-87399735D01*
X89568487Y-87459735D02*
X89398487Y-87629735D01*
X83008487Y-88369735D02*
X82688487Y-88049735D01*
X85078487Y-87599735D02*
X85278487Y-87399735D01*
X89868487Y-87459735D02*
X89568487Y-87459735D01*
X84078487Y-88249735D02*
X84358487Y-87969735D01*
X84518487Y-87399735D02*
X84878487Y-87399735D01*
X88378487Y-87289735D02*
X88273487Y-87289735D01*
X84078487Y-88361761D02*
X84078487Y-88249735D01*
X87503487Y-87169735D02*
X87948487Y-87614735D01*
X86818487Y-87169735D02*
X87503487Y-87169735D01*
X89398487Y-87629735D02*
X89058487Y-87969735D01*
X82688487Y-86669735D02*
X82868487Y-86489735D01*
X88273487Y-87289735D02*
X87948487Y-87614735D01*
X90988487Y-86559735D02*
X90088487Y-87459735D01*
X84148487Y-88431761D02*
X84078487Y-88361761D01*
X89058487Y-87969735D02*
X88528487Y-87969735D01*
X84148487Y-88579735D02*
X84148487Y-88431761D01*
X86588487Y-87399735D02*
X86818487Y-87169735D01*
X84878487Y-87399735D02*
X85078487Y-87599735D01*
X88378487Y-87819735D02*
X88378487Y-87289735D01*
X88528487Y-87969735D02*
X88378487Y-87819735D01*
X83008487Y-88849735D02*
X83008487Y-88369735D01*
X90088487Y-87459735D02*
X89868487Y-87459735D01*
X84358487Y-87969735D02*
X84358487Y-87559735D01*
X91278487Y-86559735D02*
X90988487Y-86559735D01*
X84358487Y-87559735D02*
X84518487Y-87399735D01*
%TO.N,Board_1-/USB_D_M*%
X87214937Y-88574734D02*
X87214937Y-87613285D01*
X84678487Y-87999735D02*
X84878487Y-88199735D01*
X87214937Y-87613285D02*
X87298487Y-87529735D01*
X87143486Y-88574734D02*
X87214937Y-88574734D01*
X84878487Y-88199735D02*
X86588487Y-88199735D01*
X86588487Y-88199735D02*
X87298487Y-87489735D01*
X87298487Y-87529735D02*
X87298487Y-87489735D01*
%TO.N,Board_1-/SWCLK*%
X91758487Y-88769735D02*
X91758487Y-88594735D01*
X84738487Y-87809735D02*
X84588487Y-87809735D01*
X84848487Y-88999735D02*
X91528487Y-88999735D01*
X84488487Y-87909735D02*
X84488487Y-88079735D01*
X85078487Y-87999735D02*
X84928487Y-87999735D01*
X84588487Y-87809735D02*
X84488487Y-87909735D01*
X84928487Y-87999735D02*
X84738487Y-87809735D01*
X91758487Y-88594735D02*
X91948487Y-88404735D01*
X84438487Y-88129735D02*
X84438487Y-88589735D01*
X91528487Y-88999735D02*
X91758487Y-88769735D01*
X84488487Y-88079735D02*
X84438487Y-88129735D01*
X84438487Y-88589735D02*
X84848487Y-88999735D01*
%TO.N,Board_1-/SWDIO*%
X84678487Y-88399735D02*
X85148487Y-88869735D01*
X90898487Y-86989735D02*
X91499704Y-86989735D01*
X91499704Y-86989735D02*
X91986599Y-86502840D01*
X90678487Y-87209735D02*
X90898487Y-86989735D01*
X90678487Y-88609735D02*
X90678487Y-87209735D01*
X90418487Y-88869735D02*
X90678487Y-88609735D01*
X85148487Y-88869735D02*
X90418487Y-88869735D01*
%TO.N,Board_1-/RST*%
X85298487Y-88619735D02*
X86607900Y-88619735D01*
X85078487Y-88399735D02*
X85298487Y-88619735D01*
%TO.N,Board_0-Net-(J2-CC1)*%
X89978487Y-81279735D02*
X90258487Y-81559735D01*
X87059937Y-81279735D02*
X89978487Y-81279735D01*
X86714936Y-81399735D02*
X86939937Y-81399735D01*
X86939937Y-81399735D02*
X87059937Y-81279735D01*
%TO.N,Board_0-/VDD*%
X83648487Y-83849735D02*
X83648487Y-83369735D01*
X84508487Y-82199735D02*
X84678487Y-82199735D01*
X83648487Y-83369735D02*
X83708487Y-83369735D01*
X86553487Y-81964735D02*
X87948487Y-81964735D01*
X83708487Y-83369735D02*
X84208487Y-82869735D01*
X84878487Y-81999735D02*
X86518487Y-81999735D01*
X84208487Y-82869735D02*
X84208487Y-82499735D01*
X84678487Y-82199735D02*
X84878487Y-81999735D01*
X84208487Y-82499735D02*
X84508487Y-82199735D01*
X86518487Y-81999735D02*
X86553487Y-81964735D01*
%TO.N,Board_0-/USB_D_P*%
X85018487Y-82809735D02*
X86498487Y-82809735D01*
X84848487Y-82639735D02*
X85018487Y-82809735D01*
X84718487Y-82639735D02*
X84848487Y-82639735D01*
X84678487Y-82599735D02*
X84718487Y-82639735D01*
%TO.N,Board_0-/USB_D_M*%
X84678487Y-82999735D02*
X84878487Y-83199735D01*
X84878487Y-83199735D02*
X86588487Y-83199735D01*
X87143486Y-83574734D02*
X87214937Y-83574734D01*
X87214937Y-83574734D02*
X87214937Y-82613285D01*
X86588487Y-83199735D02*
X87298487Y-82489735D01*
X87214937Y-82613285D02*
X87298487Y-82529735D01*
X87298487Y-82529735D02*
X87298487Y-82489735D01*
%TO.N,Board_0-/SWCLK*%
X91758487Y-83769735D02*
X91758487Y-83594735D01*
X91758487Y-83594735D02*
X91948487Y-83404735D01*
X84488487Y-83079735D02*
X84438487Y-83129735D01*
X85078487Y-82999735D02*
X84928487Y-82999735D01*
X91528487Y-83999735D02*
X91758487Y-83769735D01*
X84928487Y-82999735D02*
X84738487Y-82809735D01*
X84848487Y-83999735D02*
X91528487Y-83999735D01*
X84438487Y-83129735D02*
X84438487Y-83589735D01*
X84738487Y-82809735D02*
X84588487Y-82809735D01*
X84438487Y-83589735D02*
X84848487Y-83999735D01*
X84588487Y-82809735D02*
X84488487Y-82909735D01*
X84488487Y-82909735D02*
X84488487Y-83079735D01*
%TO.N,Board_0-/SWDIO*%
X90898487Y-81989735D02*
X91499704Y-81989735D01*
X84678487Y-83399735D02*
X85148487Y-83869735D01*
X90418487Y-83869735D02*
X90678487Y-83609735D01*
X91499704Y-81989735D02*
X91986599Y-81502840D01*
X90678487Y-83609735D02*
X90678487Y-82209735D01*
X90678487Y-82209735D02*
X90898487Y-81989735D01*
X85148487Y-83869735D02*
X90418487Y-83869735D01*
%TO.N,Board_0-/RST*%
X85298487Y-83619735D02*
X86607900Y-83619735D01*
X85078487Y-83399735D02*
X85298487Y-83619735D01*
%TO.N,Board_1-/VBUS*%
X87508487Y-86599735D02*
X88388487Y-86599735D01*
X87358487Y-86749735D02*
X87508487Y-86599735D01*
X86548487Y-86749735D02*
X87358487Y-86749735D01*
X86208487Y-86409735D02*
X86293487Y-86324735D01*
X88714937Y-86461185D02*
X88714937Y-86624736D01*
X88698487Y-86641186D02*
X88714937Y-86624736D01*
X88808487Y-86718286D02*
X88714937Y-86624736D01*
X88413488Y-86624736D02*
X88714937Y-86624736D01*
X89398487Y-86989735D02*
X88833487Y-86989735D01*
X86208487Y-86409735D02*
X86548487Y-86749735D01*
X88388487Y-86599735D02*
X88413488Y-86624736D01*
X88808487Y-86964735D02*
X88808487Y-86718286D01*
X88808487Y-87614735D02*
X88808487Y-86964735D01*
X88833487Y-86989735D02*
X88808487Y-86964735D01*
X88714937Y-86578285D02*
X88714937Y-86624736D01*
%TO.N,Board_1-Net-(J2-CC2)*%
X89123487Y-88519735D02*
X88269937Y-88519735D01*
X88269937Y-88519735D02*
X88214938Y-88574734D01*
%TO.N,Board_4-Net-(J2-CC2)*%
X88269937Y-103519735D02*
X88214938Y-103574734D01*
X89123487Y-103519735D02*
X88269937Y-103519735D01*
%TO.N,Board_2-/VBUS*%
X88714937Y-91578285D02*
X88714937Y-91624736D01*
X86208487Y-91409735D02*
X86548487Y-91749735D01*
X88714937Y-91461185D02*
X88714937Y-91624736D01*
X88808487Y-92614735D02*
X88808487Y-91964735D01*
X88413488Y-91624736D02*
X88714937Y-91624736D01*
X88808487Y-91718286D02*
X88714937Y-91624736D01*
X88833487Y-91989735D02*
X88808487Y-91964735D01*
X88698487Y-91641186D02*
X88714937Y-91624736D01*
X86548487Y-91749735D02*
X87358487Y-91749735D01*
X88808487Y-91964735D02*
X88808487Y-91718286D01*
X89398487Y-91989735D02*
X88833487Y-91989735D01*
X87508487Y-91599735D02*
X88388487Y-91599735D01*
X87358487Y-91749735D02*
X87508487Y-91599735D01*
X86208487Y-91409735D02*
X86293487Y-91324735D01*
X88388487Y-91599735D02*
X88413488Y-91624736D01*
%TO.N,Board_0-Net-(J2-CC2)*%
X88269937Y-83519735D02*
X88214938Y-83574734D01*
X89123487Y-83519735D02*
X88269937Y-83519735D01*
%TO.N,Board_3-Net-(J2-CC2)*%
X88269937Y-98519735D02*
X88214938Y-98574734D01*
X89123487Y-98519735D02*
X88269937Y-98519735D01*
%TO.N,Board_3-Net-(J2-CC1)*%
X86939937Y-96399735D02*
X87059937Y-96279735D01*
X86714936Y-96399735D02*
X86939937Y-96399735D01*
X89978487Y-96279735D02*
X90258487Y-96559735D01*
X87059937Y-96279735D02*
X89978487Y-96279735D01*
%TO.N,Board_1-Net-(J2-CC1)*%
X86939937Y-86399735D02*
X87059937Y-86279735D01*
X86714936Y-86399735D02*
X86939937Y-86399735D01*
X87059937Y-86279735D02*
X89978487Y-86279735D01*
X89978487Y-86279735D02*
X90258487Y-86559735D01*
%TD*%
M02*
