M48
; DRILL file KiCad 10.0.1 date 2026-08-28T15:59:36
; FORMAT={-:-/ absolute / metric / decimal}
; #@! TF.CreationDate,2026-08-28T15:59:36+02:00
; #@! TF.GenerationSoftware,Kicad,Pcbnew,10.0.1
; #@! TF.FileFunction,Plated,1,2,PTH
FMAT,2
METRIC
; #@! TA.AperFunction,Plated,PTH,ViaDrill
T1C0.200
%
G90
G05
T1
X82.868Y-81.49
X82.868Y-86.49
X82.868Y-91.49
X82.868Y-96.49
X82.868Y-101.49
X84.148Y-83.58
X84.148Y-88.58
X84.148Y-93.58
X84.148Y-98.58
X84.148Y-103.58
X86.208Y-81.41
X86.208Y-86.41
X86.208Y-91.41
X86.208Y-96.41
X86.208Y-101.41
X86.498Y-82.81
X86.498Y-87.81
X86.498Y-92.81
X86.498Y-97.81
X86.498Y-102.81
X86.715Y-81.4
X86.715Y-86.4
X86.715Y-91.4
X86.715Y-96.4
X86.715Y-101.4
X87.215Y-83.575
X87.215Y-88.575
X87.215Y-93.575
X87.215Y-98.575
X87.215Y-103.575
X87.298Y-82.49
X87.298Y-87.49
X87.298Y-92.49
X87.298Y-97.49
X87.298Y-102.49
X88.215Y-83.575
X88.215Y-88.575
X88.215Y-93.575
X88.215Y-98.575
X88.215Y-103.575
X88.715Y-81.625
X88.715Y-86.625
X88.715Y-91.625
X88.715Y-96.625
X88.715Y-101.625
X89.868Y-82.46
X89.868Y-87.46
X89.868Y-92.46
X89.868Y-97.46
X89.868Y-102.46
M30
