%TF.GenerationSoftware,KiCad,Pcbnew,10.0.1*%
%TF.CreationDate,2026-08-28T15:59:30+02:00*%
%TF.ProjectId,Zeptoduck_panelized,5a657074-6f64-4756-936b-5f70616e656c,rev?*%
%TF.SameCoordinates,Original*%
%TF.FileFunction,Legend,Top*%
%TF.FilePolarity,Positive*%
%FSLAX46Y46*%
G04 Gerber Fmt 4.6, Leading zero omitted, Abs format (unit mm)*
G04 Created by KiCad (PCBNEW 10.0.1) date 2026-08-28 15:59:30*
%MOMM*%
%LPD*%
G01*
G04 APERTURE LIST*
%ADD10C,0.100000*%
%ADD11C,0.120000*%
%ADD12C,0.140357*%
G04 APERTURE END LIST*
D10*
X90418763Y-83502517D02*
X90418763Y-83240612D01*
X90418763Y-83240612D02*
X90752096Y-83502517D01*
X90752096Y-83502517D02*
X90752096Y-83240612D01*
X90752096Y-83050136D02*
X90252096Y-83050136D01*
X90252096Y-83050136D02*
X90252096Y-82931088D01*
X90252096Y-82931088D02*
X90275906Y-82859660D01*
X90275906Y-82859660D02*
X90323525Y-82812041D01*
X90323525Y-82812041D02*
X90371144Y-82788231D01*
X90371144Y-82788231D02*
X90466382Y-82764422D01*
X90466382Y-82764422D02*
X90537810Y-82764422D01*
X90537810Y-82764422D02*
X90633048Y-82788231D01*
X90633048Y-82788231D02*
X90680667Y-82812041D01*
X90680667Y-82812041D02*
X90728287Y-82859660D01*
X90728287Y-82859660D02*
X90752096Y-82931088D01*
X90752096Y-82931088D02*
X90752096Y-83050136D01*
X90418763Y-88502517D02*
X90418763Y-88240612D01*
X90418763Y-88240612D02*
X90752096Y-88502517D01*
X90752096Y-88502517D02*
X90752096Y-88240612D01*
X90752096Y-88050136D02*
X90252096Y-88050136D01*
X90252096Y-88050136D02*
X90252096Y-87931088D01*
X90252096Y-87931088D02*
X90275906Y-87859660D01*
X90275906Y-87859660D02*
X90323525Y-87812041D01*
X90323525Y-87812041D02*
X90371144Y-87788231D01*
X90371144Y-87788231D02*
X90466382Y-87764422D01*
X90466382Y-87764422D02*
X90537810Y-87764422D01*
X90537810Y-87764422D02*
X90633048Y-87788231D01*
X90633048Y-87788231D02*
X90680667Y-87812041D01*
X90680667Y-87812041D02*
X90728287Y-87859660D01*
X90728287Y-87859660D02*
X90752096Y-87931088D01*
X90752096Y-87931088D02*
X90752096Y-88050136D01*
X90418763Y-93502517D02*
X90418763Y-93240612D01*
X90418763Y-93240612D02*
X90752096Y-93502517D01*
X90752096Y-93502517D02*
X90752096Y-93240612D01*
X90752096Y-93050136D02*
X90252096Y-93050136D01*
X90252096Y-93050136D02*
X90252096Y-92931088D01*
X90252096Y-92931088D02*
X90275906Y-92859660D01*
X90275906Y-92859660D02*
X90323525Y-92812041D01*
X90323525Y-92812041D02*
X90371144Y-92788231D01*
X90371144Y-92788231D02*
X90466382Y-92764422D01*
X90466382Y-92764422D02*
X90537810Y-92764422D01*
X90537810Y-92764422D02*
X90633048Y-92788231D01*
X90633048Y-92788231D02*
X90680667Y-92812041D01*
X90680667Y-92812041D02*
X90728287Y-92859660D01*
X90728287Y-92859660D02*
X90752096Y-92931088D01*
X90752096Y-92931088D02*
X90752096Y-93050136D01*
X90418763Y-98502517D02*
X90418763Y-98240612D01*
X90418763Y-98240612D02*
X90752096Y-98502517D01*
X90752096Y-98502517D02*
X90752096Y-98240612D01*
X90752096Y-98050136D02*
X90252096Y-98050136D01*
X90252096Y-98050136D02*
X90252096Y-97931088D01*
X90252096Y-97931088D02*
X90275906Y-97859660D01*
X90275906Y-97859660D02*
X90323525Y-97812041D01*
X90323525Y-97812041D02*
X90371144Y-97788231D01*
X90371144Y-97788231D02*
X90466382Y-97764422D01*
X90466382Y-97764422D02*
X90537810Y-97764422D01*
X90537810Y-97764422D02*
X90633048Y-97788231D01*
X90633048Y-97788231D02*
X90680667Y-97812041D01*
X90680667Y-97812041D02*
X90728287Y-97859660D01*
X90728287Y-97859660D02*
X90752096Y-97931088D01*
X90752096Y-97931088D02*
X90752096Y-98050136D01*
X90418763Y-103502517D02*
X90418763Y-103240612D01*
X90418763Y-103240612D02*
X90752096Y-103502517D01*
X90752096Y-103502517D02*
X90752096Y-103240612D01*
X90752096Y-103050136D02*
X90252096Y-103050136D01*
X90252096Y-103050136D02*
X90252096Y-102931088D01*
X90252096Y-102931088D02*
X90275906Y-102859660D01*
X90275906Y-102859660D02*
X90323525Y-102812041D01*
X90323525Y-102812041D02*
X90371144Y-102788231D01*
X90371144Y-102788231D02*
X90466382Y-102764422D01*
X90466382Y-102764422D02*
X90537810Y-102764422D01*
X90537810Y-102764422D02*
X90633048Y-102788231D01*
X90633048Y-102788231D02*
X90680667Y-102812041D01*
X90680667Y-102812041D02*
X90728287Y-102859660D01*
X90728287Y-102859660D02*
X90752096Y-102931088D01*
X90752096Y-102931088D02*
X90752096Y-103050136D01*
X90702096Y-82112993D02*
X90702096Y-82398707D01*
X90702096Y-82255850D02*
X90202096Y-82255850D01*
X90202096Y-82255850D02*
X90273525Y-82303469D01*
X90273525Y-82303469D02*
X90321144Y-82351088D01*
X90321144Y-82351088D02*
X90344953Y-82398707D01*
X90702096Y-87112993D02*
X90702096Y-87398707D01*
X90702096Y-87255850D02*
X90202096Y-87255850D01*
X90202096Y-87255850D02*
X90273525Y-87303469D01*
X90273525Y-87303469D02*
X90321144Y-87351088D01*
X90321144Y-87351088D02*
X90344953Y-87398707D01*
X90702096Y-92112993D02*
X90702096Y-92398707D01*
X90702096Y-92255850D02*
X90202096Y-92255850D01*
X90202096Y-92255850D02*
X90273525Y-92303469D01*
X90273525Y-92303469D02*
X90321144Y-92351088D01*
X90321144Y-92351088D02*
X90344953Y-92398707D01*
X90702096Y-97112993D02*
X90702096Y-97398707D01*
X90702096Y-97255850D02*
X90202096Y-97255850D01*
X90202096Y-97255850D02*
X90273525Y-97303469D01*
X90273525Y-97303469D02*
X90321144Y-97351088D01*
X90321144Y-97351088D02*
X90344953Y-97398707D01*
X90702096Y-102112993D02*
X90702096Y-102398707D01*
X90702096Y-102255850D02*
X90202096Y-102255850D01*
X90202096Y-102255850D02*
X90273525Y-102303469D01*
X90273525Y-102303469D02*
X90321144Y-102351088D01*
X90321144Y-102351088D02*
X90344953Y-102398707D01*
%TO.C,U2*%
D11*
X87878487Y-96549735D02*
X88878487Y-96549735D01*
X87878487Y-98029735D02*
X88878487Y-98029735D01*
D12*
X87448665Y-96839735D02*
G75*
G02*
X87308309Y-96839735I-70178J0D01*
G01*
X87308309Y-96839735D02*
G75*
G02*
X87448665Y-96839735I70178J0D01*
G01*
%TO.C,R2*%
D11*
X90614846Y-91179735D02*
X90922128Y-91179735D01*
X90614846Y-91939735D02*
X90922128Y-91939735D01*
%TO.C,U2*%
X87878487Y-101549735D02*
X88878487Y-101549735D01*
X87878487Y-103029735D02*
X88878487Y-103029735D01*
D12*
X87448665Y-101839735D02*
G75*
G02*
X87308309Y-101839735I-70178J0D01*
G01*
X87308309Y-101839735D02*
G75*
G02*
X87448665Y-101839735I70178J0D01*
G01*
%TO.C,U1*%
D11*
X84186487Y-103941735D02*
X84186487Y-101741235D01*
X84669987Y-101257735D02*
X86370487Y-101257735D01*
X86370487Y-101257735D02*
X86370487Y-103941735D01*
X86370487Y-103941735D02*
X84186487Y-103941735D01*
X84398487Y-101469735D02*
X84106514Y-101467735D01*
X84398487Y-101179735D01*
X84398487Y-101469735D01*
G36*
X84398487Y-101469735D02*
G01*
X84106514Y-101467735D01*
X84398487Y-101179735D01*
X84398487Y-101469735D01*
G37*
%TO.C,R1*%
X89274846Y-93079735D02*
X89582128Y-93079735D01*
X89274846Y-93839735D02*
X89582128Y-93839735D01*
%TO.C,U1*%
X84186487Y-98941735D02*
X84186487Y-96741235D01*
X84669987Y-96257735D02*
X86370487Y-96257735D01*
X86370487Y-96257735D02*
X86370487Y-98941735D01*
X86370487Y-98941735D02*
X84186487Y-98941735D01*
X84398487Y-96469735D02*
X84106514Y-96467735D01*
X84398487Y-96179735D01*
X84398487Y-96469735D01*
G36*
X84398487Y-96469735D02*
G01*
X84106514Y-96467735D01*
X84398487Y-96179735D01*
X84398487Y-96469735D01*
G37*
%TO.C,R2*%
X90614846Y-101179735D02*
X90922128Y-101179735D01*
X90614846Y-101939735D02*
X90922128Y-101939735D01*
%TO.C,U1*%
X84186487Y-93941735D02*
X84186487Y-91741235D01*
X84669987Y-91257735D02*
X86370487Y-91257735D01*
X86370487Y-91257735D02*
X86370487Y-93941735D01*
X86370487Y-93941735D02*
X84186487Y-93941735D01*
X84398487Y-91469735D02*
X84106514Y-91467735D01*
X84398487Y-91179735D01*
X84398487Y-91469735D01*
G36*
X84398487Y-91469735D02*
G01*
X84106514Y-91467735D01*
X84398487Y-91179735D01*
X84398487Y-91469735D01*
G37*
X84186487Y-88941735D02*
X84186487Y-86741235D01*
X84669987Y-86257735D02*
X86370487Y-86257735D01*
X86370487Y-86257735D02*
X86370487Y-88941735D01*
X86370487Y-88941735D02*
X84186487Y-88941735D01*
X84398487Y-86469735D02*
X84106514Y-86467735D01*
X84398487Y-86179735D01*
X84398487Y-86469735D01*
G36*
X84398487Y-86469735D02*
G01*
X84106514Y-86467735D01*
X84398487Y-86179735D01*
X84398487Y-86469735D01*
G37*
%TO.C,R2*%
X90614846Y-81179735D02*
X90922128Y-81179735D01*
X90614846Y-81939735D02*
X90922128Y-81939735D01*
%TO.C,U1*%
X84186487Y-83941735D02*
X84186487Y-81741235D01*
X84669987Y-81257735D02*
X86370487Y-81257735D01*
X86370487Y-81257735D02*
X86370487Y-83941735D01*
X86370487Y-83941735D02*
X84186487Y-83941735D01*
X84398487Y-81469735D02*
X84106514Y-81467735D01*
X84398487Y-81179735D01*
X84398487Y-81469735D01*
G36*
X84398487Y-81469735D02*
G01*
X84106514Y-81467735D01*
X84398487Y-81179735D01*
X84398487Y-81469735D01*
G37*
%TO.C,U2*%
X87878487Y-81549735D02*
X88878487Y-81549735D01*
X87878487Y-83029735D02*
X88878487Y-83029735D01*
D12*
X87448665Y-81839735D02*
G75*
G02*
X87308309Y-81839735I-70178J0D01*
G01*
X87308309Y-81839735D02*
G75*
G02*
X87448665Y-81839735I70178J0D01*
G01*
%TO.C,R1*%
D11*
X89274846Y-88079735D02*
X89582128Y-88079735D01*
X89274846Y-88839735D02*
X89582128Y-88839735D01*
%TO.C,U2*%
X87878487Y-86549735D02*
X88878487Y-86549735D01*
X87878487Y-88029735D02*
X88878487Y-88029735D01*
D12*
X87448665Y-86839735D02*
G75*
G02*
X87308309Y-86839735I-70178J0D01*
G01*
X87308309Y-86839735D02*
G75*
G02*
X87448665Y-86839735I70178J0D01*
G01*
%TO.C,R1*%
D11*
X89274846Y-103079735D02*
X89582128Y-103079735D01*
X89274846Y-103839735D02*
X89582128Y-103839735D01*
%TO.C,U2*%
X87878487Y-91549735D02*
X88878487Y-91549735D01*
X87878487Y-93029735D02*
X88878487Y-93029735D01*
D12*
X87448665Y-91839735D02*
G75*
G02*
X87308309Y-91839735I-70178J0D01*
G01*
X87308309Y-91839735D02*
G75*
G02*
X87448665Y-91839735I70178J0D01*
G01*
%TO.C,R1*%
D11*
X89274846Y-83079735D02*
X89582128Y-83079735D01*
X89274846Y-83839735D02*
X89582128Y-83839735D01*
X89274846Y-98079735D02*
X89582128Y-98079735D01*
X89274846Y-98839735D02*
X89582128Y-98839735D01*
%TO.C,R2*%
X90614846Y-96179735D02*
X90922128Y-96179735D01*
X90614846Y-96939735D02*
X90922128Y-96939735D01*
X90614846Y-86179735D02*
X90922128Y-86179735D01*
X90614846Y-86939735D02*
X90922128Y-86939735D01*
%TD*%
M02*
